<svg viewBox="0 0 915.2 910" xmlns="http://www.w3.org/2000/svg"><g fill="#fff"><path d="M50.9 655.4c10.2-3.4 16.9-9.9 16.9-21.8 0-14.2-8.7-22.1-24.6-24.3-4.8-.6-8.2-.6-13-.6H.8v99.7h32c4.6 0 7.9 0 12.7-.8 13.1-2 25.7-10.4 25.7-28.6.2-13.7-7.2-20.5-20.3-23.6zm-37.6-36.6h17.9c2.4 0 5.4 0 7.9.3 9 1.1 15.3 5.6 15.3 15.5 0 8.7-3.7 14.9-14 16.5-2.9.4-5.4.6-7.9.6H13.3zm28.4 79.3c-1.9.1-4.6.3-7 .3H13.3V662h20.8c2.4 0 4.6.1 7.9.6 9.6 1.3 16.2 5.7 16.2 18.1-.1 10.6-6.9 16.5-16.5 17.4zm109.8-30c0-22.4-11.7-38.2-32.8-38.2-21 0-36.5 15.8-36.5 40.6 0 27 14.8 40 34.8 40 15.8 0 30.3-8.2 33.4-26.7h-13c-1.7 11-9.9 17.2-19.9 17.2-11.3 0-20.8-6.8-22-27H151c.5-2.8.5-4.8.5-5.9zm-55.6-3.7c1.3-16.4 10.4-25 22.5-25 12.5 0 19.3 9.1 20.5 25zm102.5-34.5c-19.2 0-36 14.6-36 40.5 0 28 14.7 40.2 34.1 40.2 17 0 29.8-8.7 33.5-26.4h-13c-2.6 11.1-9.6 16.9-19.9 16.9-11.4 0-21.2-9.3-21.2-31.5 0-20.8 10.1-29.9 22.1-29.9 10.2 0 16.9 5.9 19.6 18.2h13c-2.1-17-13.8-28-32.2-28zm102.7 59v-28.7c0-3.3-.1-7.1-.4-10.1-1.3-12.5-9-20.2-27.3-20.2-16.9 0-28.3 9.4-29.5 25.7h13c.9-10.5 5.9-16.2 16.5-16.2 10.2 0 14.2 4.6 14.9 11.7.3 2.9.3 5.9.3 9.3v2h-4.9c-29.9 0-43 9-43 26.2 0 14.2 10.8 21.8 24.7 21.8 7.4 0 14-1.1 19.2-4.8l4.2-8.2 1.3 11h12.5c-1.1-8.5-1.5-13.6-1.5-19.5zm-12.5-9.5c0 13.9-7.6 21.5-19 21.5-9.4 0-15.3-4-15.3-13.3 0-13.1 13.3-17.6 34.3-16.2zm98.8-47.5h-12.5v33.7c0 26.1-9.6 35.1-21.5 35.1-10.4 0-16.6-5.9-17.8-14.6-.4-3.9-.6-8.1-.6-10.5v-43.7h-12.5v45.9c0 6.2.2 9.3.8 13.1 1.7 10.5 11 19.5 26.9 19.5 7.9 0 13.5-1.3 19.9-5.9l4.8-9v13h12.5zm45.1-2c-15.8 0-26.4 8.4-26.4 22.4 0 13.3 11 19 24.7 22.9 12.8 3.4 18.1 7.4 18.1 14.7 0 7.4-6.7 11.1-14.8 11.1-8.7 0-15.9-3.9-17.9-15h-13c2.4 17.3 14.2 24.6 29.9 24.6 16.2 0 28.4-7.3 28.4-21.6 0-13-8.3-19.9-26-24.6-10.4-2.8-16.7-5.7-16.7-13.3 0-6.6 4-11.4 12.7-11.4 9 0 14.4 5.4 16.2 14.2h13c-1.6-14.2-11.1-24-28.2-24zm107.8 38.2c0-22.4-11.7-38.2-32.8-38.2-21 0-36.5 15.8-36.5 40.6 0 27 14.8 40 34.8 40 15.8 0 30.3-8.2 33.4-26.7h-13c-1.7 11-9.9 17.2-19.9 17.2-11.3 0-20.8-6.8-22-27h55.5c.5-2.8.5-4.8.5-5.9zm-55.6-3.7c1.3-16.4 10.4-25 22.5-25 12.5 0 19.3 9.1 20.5 25zm134.6-34.5c-19.2 0-36 14.6-36 40.5 0 28 14.7 40.2 34.1 40.2 17 0 29.8-8.7 33.5-26.4h-13c-2.6 11.1-9.6 16.9-19.9 16.9-11.4 0-21.2-9.3-21.2-31.5 0-20.8 10.1-29.9 22.1-29.9 10.2 0 16.9 5.9 19.6 18.2h13c-2.1-17-13.9-28-32.2-28zm53.9-23.2c-4.5 0-7.9 3.4-7.9 7.9s3.4 7.9 7.9 7.9 7.9-3.4 7.9-7.9c0-4.4-3.3-7.9-7.9-7.9zm-6.2 25.2h12.5v76.5H667zm50.1 10.1h14.2v-9.6h-14.2v-17.8h-12.5v17.8h-10.2v9.6h10.2v44.6c0 4.3 0 7.6.1 9.6.8 9.6 5.6 13.3 15.3 13.3 3.4 0 7-.1 10.5-.8v-9.1c-9.6 1.1-12.7-.4-13.3-7.9-.1-2-.1-3.3-.1-5.9zm37.5-35.3c-4.5 0-7.9 3.4-7.9 7.9s3.4 7.9 7.9 7.9 7.9-3.4 7.9-7.9c.1-4.4-3.4-7.9-7.9-7.9zm-6.2 25.2h12.5v76.5h-12.5zm98.2 36.2c0-22.4-11.7-38.2-32.8-38.2-21 0-36.5 15.8-36.5 40.6 0 27 14.8 40 34.8 40 15.8 0 30.3-8.2 33.4-26.7h-13c-1.7 11-9.9 17.2-19.9 17.2-11.3 0-20.8-6.8-22-27h55.5c.5-2.8.5-4.8.5-5.9zm-55.6-3.7c1.3-16.4 10.4-25 22.5-25 12.5 0 19.3 9.1 20.5 25zm95.2-34.5c-15.8 0-26.4 8.4-26.4 22.4 0 13.3 11 19 24.7 22.9 12.8 3.4 18.1 7.4 18.1 14.7 0 7.4-6.7 11.1-14.8 11.1-8.7 0-15.9-3.9-17.9-15H857c2.4 17.3 14.2 24.6 29.9 24.6 16.2 0 28.4-7.3 28.4-21.6 0-13-8.3-19.9-26-24.6-10.4-2.8-16.7-5.7-16.7-13.3 0-6.6 4-11.4 12.7-11.4 9 0 14.4 5.4 16.2 14.2h13c-1.7-14.2-11.2-24-28.3-24zM60.7 862.3v-28.7c0-3.3-.1-7.1-.4-10.1-1.3-12.5-9-20.2-27.3-20.2-16.9 0-28.3 9.4-29.5 25.7h13c.9-10.5 5.9-16.2 16.5-16.2 10.2 0 14.2 4.6 14.9 11.7.3 2.9.3 5.9.3 9.3v2h-4.9c-29.9 0-43 9-43 26.2 0 14.2 10.8 21.8 24.7 21.8 7.4 0 14-1.1 19.2-4.8l4.2-8.2 1.3 11h12.5c-1.2-8.5-1.5-13.6-1.5-19.5zm-12.5-9.5c0 13.9-7.6 21.5-19 21.5-9.4 0-15.3-4-15.3-13.3 0-13.1 13.3-17.6 34.3-16.2zm65.2-49.2c-3.6 0-7.6 1.3-10.7 3.4l-7 10.2v-12H83.3v76.5h12.5v-43.5c0-17.5 9.9-25.2 22.9-24.3v-9.3c-1.6-.7-3.3-1-5.3-1zm79.6 37.8c0-22.4-11.7-38.2-32.8-38.2-21 0-36.5 15.8-36.5 40.6 0 27 14.8 40 34.8 40 15.8 0 30.3-8.2 33.4-26.7h-13c-1.7 11-9.9 17.2-19.9 17.2-11.3 0-20.8-6.8-22-27h55.5c.5-2.7.5-4.7.5-5.9zm-55.6-3.6c1.3-16.4 10.4-25 22.5-25 12.5 0 19.3 9.1 20.5 25zm111.2-57.7c-4.5 0-7.9 3.4-7.9 7.9s3.4 7.9 7.9 7.9 7.9-3.4 7.9-7.9c.1-4.4-3.4-7.9-7.9-7.9zm-6.1 25.2H255v76.5h-12.5zm137.1 16.6c-1.7-10.5-9.6-18.7-23.2-18.7-6.8 0-12.2 1.3-16.2 4.5l-6.8 9.9c-2.9-8.4-10.4-14.2-22.1-14.2-6.8 0-12.2 1.3-16.2 4.5l-4.9 8.7v-11.1h-12.5V882h12.5v-38c0-23.2 7.1-30.8 16.7-30.8 8.7 0 14.2 4.2 15.3 12.8.4 3.9.6 8.1.6 14.8v41.1h12.5V844c0-23.2 7.1-30.8 16.7-30.8 8.7 0 14.2 4.2 15.3 12.8.4 3.9.6 8.1.6 14.8v41.1h12.5v-47c-.1-6.1-.2-9.1-.8-13zm61.1-18.6c-7.9 0-15.9 2.5-20.2 5.9l-5.7 8.2v-12.2h-12.5V910h12.5v-38.8l5 7.5c3.9 3.3 12 5 18.4 5 19.9 0 37.4-13.1 37.4-41.4-.2-22.3-12.6-39-34.9-39zm-2.7 71.1c-11 0-23.4-7.6-23.4-27.3V843c0-22 11.4-29.9 24.1-29.9 15.3 0 23.2 13.7 23.2 31.1 0 19.7-10.4 30.2-23.9 30.2zm85-71.1c-26 0-38 18.7-38 40.3 0 21.5 12 40.3 38 40.3s38-18.8 38-40.3c0-21.7-12-40.3-38-40.3zm0 71.1c-15.5 0-24.5-12.8-24.5-30.8 0-18.1 9-30.8 24.5-30.8 15.4 0 24.5 12.7 24.5 30.8-.1 17.9-9 30.8-24.5 30.8zm83.9-70.8c-3.6 0-7.6 1.3-10.7 3.4l-7 10.2v-12h-12.5v76.5h12.5v-43.5c0-17.5 9.9-25.2 22.9-24.3v-9.3c-1.4-.7-3.1-1-5.2-1zm33.5 11.8h14.2v-9.5h-14.2v-17.8H628v17.8h-10.2v9.6H628v44.8c0 4.3 0 7.6.1 9.6.8 9.6 5.6 13.3 15.3 13.3 3.4 0 7-.1 10.5-.8v-9.1c-9.6 1.1-12.7-.4-13.3-7.9-.1-2-.1-3.3-.1-5.9v-44.1zm86.2 46.9v-28.7c0-3.3-.1-7.1-.4-10.1-1.3-12.5-9-20.2-27.3-20.2-16.9 0-28.3 9.4-29.5 25.7h13c.9-10.5 5.9-16.2 16.5-16.2 10.2 0 14.2 4.6 14.9 11.7.3 2.9.3 5.9.3 9.3v2h-4.9c-29.9 0-43 9-43 26.2 0 14.2 10.8 21.8 24.7 21.8 7.4 0 14-1.1 19.2-4.8l4.2-8.2 1.3 11H728c-1.2-8.5-1.4-13.6-1.4-19.5zm-12.5-9.5c0 13.9-7.6 21.5-19 21.5-9.4 0-15.3-4-15.3-13.3 0-13.1 13.3-17.6 34.3-16.2zm99.5-27c-1.1-13.3-10.5-22.4-27.3-22.4-7.9 0-13.3 1.3-19.9 6.3l-4.8 8.7v-13.1h-12.5v76.6h12.5v-33.7c0-26.1 10.1-35.1 22.1-35.1 11.9 0 16.7 6.7 17.5 15.6.3 3.9.3 7.1.3 11v42.2H814v-43c-.1-6.3-.1-9.3-.4-13.1zm37.1-10.4H865v-9.5h-14.2v-17.8h-12.5v17.8H828v9.6h10.2v44.8c0 4.3 0 7.6.1 9.6.8 9.6 5.6 13.3 15.3 13.3 3.4 0 7-.1 10.5-.8v-9.1c-9.6 1.1-12.7-.4-13.3-7.9-.1-2-.1-3.3-.1-5.9z"/><circle cx="885.8" cy="874.7" r="9.3"/><path d="M321.5 193.1H6.9c-3.8 0-6.9-3.1-6.9-6.9V7.3C0 3.5 3.1.4 6.9.4h90.5c3.8 0 6.9 3.1 6.9 6.9V129c0 3.8-3.1 6.9-6.9 6.9s-6.9-3.1-6.9-6.9V14.2H13.8v165h300.7v-165h-74.6V129c0 3.8-3.1 6.9-6.9 6.9s-6.9-3.1-6.9-6.9V7.3c0-3.8 3.1-6.9 6.9-6.9h88.4c3.8 0 6.9 3.1 6.9 6.9v178.9c.1 3.8-3 6.9-6.8 6.9zM513 468.3V7.6c0-3.8-3.1-6.9-6.9-6.9s-6.9 3.1-6.9 6.9v453.8h-77.8V7.3c0-3.8-3.1-6.9-6.9-6.9s-6.9 3.1-6.9 6.9v461c0 3.8 3.1 6.9 6.9 6.9h91.6c3.8 0 6.9-3.1 6.9-6.9zm-410.3 5.5c1.3-1.3 2-3.1 2-4.9V326.4c0-3.8-3.1-6.9-6.9-6.9s-6.9 3.1-6.9 6.9v135.5l-77-.5V273.9h300.7v187.5h-74V325.8c0-3.8-3.1-6.9-6.9-6.9s-6.9 3.1-6.9 6.9v142.5c0 3.8 3.1 6.9 6.9 6.9h87.9c3.8 0 6.9-3.1 6.9-6.9V266.9c0-3.8-3.1-6.9-6.9-6.9H6.9c-3.8 0-6.9 3.1-6.9 6.9v201.4c0 3.8 3.1 6.9 6.9 6.9l90.8.6c1.9 0 3.7-.7 5-2zm683.7-460l3.9.1c24 .6 96.9 2.3 111.3 59.5.9 3.7 4.7 6 8.4 5 3.7-.9 6-4.7 5-8.4C903.8 25.3 862 1.8 790.7.1L598.6 0c-3.8 0-6.9 3.1-6.9 6.9v460.6c0 3.8 3.1 6.9 6.9 6.9h88.2c3.8 0 6.9-3.1 6.9-6.9V271.7h129.4c50.8 0 89-41.2 89-95.9s-38.3-95.9-89-95.9l-136.3.4c-.5 0-1 .2-1.5.3-.4.1-.8.1-1.2.2-.5.2-.9.6-1.3.9-.3.2-.6.3-.9.6-.4.4-.6.9-.9 1.4-.2.3-.4.5-.6.8-.2.5-.2 1-.3 1.5-.1.4-.2.8-.2 1.2v96.9c0 3.8 3.1 6.9 6.9 6.9h152.3c3.8 0 6.9-3.1 6.9-6.9s-3.1-6.9-6.9-6.9H693.7V94l129.4-.4c43.6 0 75.2 34.5 75.2 82.1s-31.6 82.1-75.2 82.1H686.8c-3.8 0-6.9 3.1-6.9 6.9v195.8h-74.3V13.8z"/></g></svg>