<?xml version="1.0" encoding="UTF-8" standalone="no"?>
<!DOCTYPE svg PUBLIC "-//W3C//DTD SVG 1.1//EN" "http://www.w3.org/Graphics/SVG/1.1/DTD/svg11.dtd">
<svg width="100%" height="100%" viewBox="0 0 295 30" version="1.1" xmlns="http://www.w3.org/2000/svg" xmlns:xlink="http://www.w3.org/1999/xlink" xml:space="preserve" xmlns:serif="http://www.serif.com/" style="fill-rule:evenodd;clip-rule:evenodd;stroke-linejoin:round;stroke-miterlimit:1.41421;">
    <g transform="matrix(1,0,0,1,-15,0)">
        <rect x="16" y="0" width="278" height="60" style="fill:none;"/>
        <path d="M33.313,13.456C34.603,13.456 35.682,13.36 36.542,13.164C37.404,12.968 38.085,12.691 38.586,12.336C39.092,11.983 39.449,11.566 39.667,11.088C39.883,10.608 39.989,10.085 39.989,9.514C39.989,8.947 39.883,8.426 39.667,7.945C39.449,7.466 39.092,7.049 38.586,6.695C38.085,6.339 37.404,6.063 36.542,5.871C35.682,5.677 34.603,5.576 33.313,5.576L24,5.576L24,13.456L33.313,13.456ZM34.714,1C36.438,1 38,1.148 39.397,1.451C40.797,1.752 41.999,2.23 43.006,2.889C44.007,3.544 44.779,4.397 45.318,5.442C45.858,6.49 46.125,7.777 46.125,9.302C46.125,11.645 45.429,13.435 44.03,14.677C42.631,15.923 40.745,16.756 38.376,17.179L45.536,27.294C45.787,27.65 46.079,27.864 46.425,27.931C46.763,28.005 47.078,28.041 47.364,28.041L47.364,29L37.294,29L37.294,28.042C37.619,28.042 37.898,27.986 38.131,27.881C38.364,27.776 38.481,27.633 38.481,27.455C38.481,27.277 38.41,27.076 38.266,26.842C38.123,26.613 37.907,26.302 37.62,25.911L31.698,17.608L24,17.608L24,27.083C24,27.401 24.115,27.641 24.35,27.801C24.583,27.961 25.003,28.041 25.616,28.041L25.616,29L16.301,29L16.301,28.042C17.341,28.042 18,27.721 18,27.084L18,2.916C18,2.279 17.341,1.959 16.301,1.959L16.301,1L34.714,1Z" style="fill-rule:nonzero;"/>
        <path d="M62,28.042C62.94,28.042 63.412,27.721 63.412,27.084L63.412,2.917C63.412,2.279 62.94,1.959 62,1.959L62,1L71,1L71,1.959C70.058,1.959 69.589,2.279 69.589,2.917L69.589,27.084C69.589,27.721 70.058,28.042 71,28.042L71,29L62,29L62,28.042Z" style="fill-rule:nonzero;"/>
        <path d="M99.644,6.117C98.278,6.546 97.049,7.158 95.952,7.963C94.86,8.764 93.972,9.753 93.288,10.929C92.606,12.106 92.266,13.444 92.266,14.941C92.266,16.439 92.607,17.774 93.288,18.95C93.972,20.128 94.86,21.119 95.952,21.921C97.05,22.723 98.278,23.337 99.644,23.766C101.002,24.192 102.367,24.405 103.736,24.405C105.095,24.405 106.462,24.192 107.825,23.766C109.188,23.337 110.419,22.723 111.513,21.921C112.608,21.12 113.494,20.129 114.179,18.95C114.859,17.774 115.2,16.438 115.2,14.941C115.2,13.444 114.858,12.107 114.179,10.929C113.494,9.753 112.608,8.764 111.513,7.963C110.418,7.158 109.188,6.546 107.825,6.117C106.462,5.687 105.096,5.475 103.736,5.475C102.367,5.475 101.002,5.687 99.644,6.117ZM109.761,1.436C111.809,2.025 113.675,2.904 115.362,4.083C117.05,5.26 118.43,6.749 119.509,8.549C120.589,10.352 121.122,12.481 121.122,14.94C121.122,17.398 120.589,19.531 119.509,21.329C118.43,23.133 117.049,24.62 115.362,25.794C113.675,26.971 111.809,27.827 109.761,28.361C107.718,28.896 105.706,29.162 103.736,29.162C101.759,29.162 99.749,28.895 97.704,28.361C95.66,27.827 93.792,26.971 92.104,25.794C90.416,24.619 89.036,23.132 87.958,21.329C86.883,19.531 86.341,17.397 86.341,14.94C86.341,12.482 86.883,10.352 87.958,8.549C89.035,6.749 90.415,5.26 92.104,4.083C93.792,2.903 95.66,2.024 97.704,1.436C99.749,0.85 101.76,0.553 103.736,0.553C105.707,0.553 107.718,0.85 109.761,1.436Z" style="fill-rule:nonzero;"/>
        <path d="M202.83,25.061C202.723,25.061 202.625,25.052 202.537,25.032C202.447,25.016 202.346,25.008 202.24,25.008C202.023,25.008 201.51,25.223 200.707,25.65C199.895,26.078 198.873,26.558 197.637,27.095C196.399,27.625 194.987,28.093 193.41,28.484C191.83,28.877 190.178,29.071 188.455,29.071C186.195,29.071 184.021,28.787 181.943,28.217C179.861,27.646 178.019,26.763 176.422,25.568C174.824,24.374 173.561,22.887 172.627,21.104C171.693,19.322 171.229,17.236 171.229,14.85C171.229,12.496 171.694,10.421 172.627,8.619C173.561,6.819 174.824,5.311 176.422,4.101C178.02,2.89 179.861,1.979 181.943,1.372C184.021,0.767 186.195,0.461 188.455,0.461C190.283,0.461 191.943,0.606 193.435,0.892C194.922,1.176 196.228,1.479 197.334,1.801C198.449,2.12 199.33,2.422 199.976,2.707C200.622,2.994 201.017,3.137 201.162,3.137C201.34,3.137 201.494,3.048 201.617,2.869C201.744,2.692 201.842,2.549 201.914,2.439L202.723,3.083L198.528,9.552L197.985,9.178C197.985,9.071 197.977,8.964 197.963,8.856C197.942,8.75 197.914,8.625 197.879,8.483C197.81,8.093 197.451,7.692 196.806,7.278C196.158,6.871 195.357,6.504 194.406,6.185C193.459,5.863 192.449,5.595 191.394,5.382C190.332,5.166 189.357,5.059 188.457,5.059C186.949,5.059 185.508,5.271 184.123,5.701C182.737,6.128 181.537,6.754 180.517,7.573C179.496,8.392 178.676,9.399 178.068,10.597C177.459,11.788 177.154,13.155 177.154,14.683C177.154,16.218 177.459,17.58 178.068,18.775C178.676,19.97 179.496,20.978 180.517,21.798C181.538,22.614 182.74,23.239 184.123,23.67C185.508,24.096 186.949,24.312 188.457,24.312C189.606,24.312 190.81,24.174 192.063,23.909C193.321,23.641 194.469,23.302 195.51,22.895C196.551,22.484 197.422,22.022 198.121,21.503C198.822,20.986 199.166,20.495 199.166,20.035C199.166,19.785 199.096,19.57 198.955,19.391L199.707,18.964L203.262,24.631L202.83,25.061Z" style="fill-rule:nonzero;"/>
        <path d="M234.541,18.14L230.02,8.242L224.959,18.14L234.541,18.14ZM214.246,28.042C214.709,27.969 215.076,27.741 215.35,27.348C215.621,26.959 215.875,26.518 216.127,26.018L226.086,5.311C226.34,4.852 226.565,4.424 226.758,4.038C226.957,3.645 227.059,3.311 227.059,3.023C227.059,2.669 226.932,2.421 226.68,2.281C226.43,2.135 226.16,2.031 225.873,1.962L225.873,1L234.973,1L234.973,1.961C234.719,2.03 234.471,2.131 234.219,2.252C233.969,2.379 233.842,2.634 233.842,3.023C233.842,3.311 233.903,3.594 234.03,3.876C234.155,4.159 234.344,4.533 234.596,4.994L245.791,26.656C245.975,27.047 246.215,27.332 246.523,27.509C246.824,27.686 247.174,27.863 247.57,28.042L247.57,28.998L238.091,28.998L238.091,28.042C238.237,28.042 238.417,27.987 238.632,27.879C238.852,27.771 238.956,27.615 238.956,27.401C238.956,27.047 238.81,26.586 238.523,26.017L236.476,22.079L223.34,22.079L221.404,25.858C221.041,26.605 220.865,27.134 220.865,27.454C220.865,27.845 221.203,28.042 221.888,28.042L221.888,28.998L214.242,28.998L214.242,28.042" style="fill-rule:nonzero;"/>
        <path d="M145.36,28.538L144.512,28.538L144.705,21.764L137.951,22.885L139.114,20.359L132.974,14.822L134.425,14.271L133,9.801L135.812,10.578L137.188,8.411L141.414,12.377L140.722,4.565L142.655,5.528L145.354,0L148.054,5.528L149.987,4.565L149.295,12.377L153,8.411L154.377,10.578L158.029,9.557L157.008,14.271L158.424,14.718L151.594,20.359L152.81,22.885L146.05,21.764L146.244,28.538L145.36,28.538" style="fill:rgb(237,52,37);fill-rule:nonzero;"/>
        <g id="Group">
            <path d="M260.003,28.045C260.683,28.045 261.018,27.722 261.018,27.084L261.018,2.951C261.018,2.32 260.683,1.997 260.003,1.997L260.003,1.039L269.156,1.039L269.156,1.997C268.868,1.997 268.725,2.172 268.725,2.527C268.725,2.812 269.084,3.307 269.794,4.014L285.156,19.858L285.156,2.951C285.156,2.32 284.69,1.997 283.761,1.997L283.761,1.039L291.841,1.039L291.841,1.997C291.168,1.997 290.828,2.32 290.828,2.951L290.828,27.083C290.828,27.722 291.168,28.044 291.841,28.044L291.841,29L283.175,29L283.175,28.044C283.635,28.044 283.872,27.881 283.872,27.564C283.872,27.318 283.586,26.91 283.014,26.344L266.694,9.436L266.694,27.083C266.694,27.722 267.096,28.044 267.919,28.044L267.919,29L260,29L260.003,28.045Z" style="fill-rule:nonzero;"/>
            <path d="M302.53,1.65L300.625,1.65L300.625,6.682L299.853,6.682L299.853,1.65L297.946,1.65L297.946,1L302.531,1L302.531,1.65L302.53,1.65Z" style="fill-rule:nonzero;"/>
            <path d="M309.31,1L309.31,6.683L308.54,6.683L308.54,2.825L306.592,6.145L306.267,6.145L304.321,2.825L304.321,6.682L303.55,6.682L303.55,1L304.2,1L306.43,4.929L308.663,1L309.31,1Z" style="fill-rule:nonzero;"/>
        </g>
    </g>
</svg>
