<svg xmlns="http://www.w3.org/2000/svg" width="123.646" height="44.188" viewBox="0 0 123.646 44.188"><defs><clipPath id="a"><path data-name="Rectangle 25" transform="translate(27.388 16)" fill="#767676" d="M0 0h123.646v44.188H0z"/></clipPath></defs><g data-name="Fusion Homes Logo"><g data-name="Group 23" clip-path="url(#a)" transform="translate(-27.388 -16)"><path data-name="Path 30733" d="M113.083 16.961a12.161 12.161 0 1 1-12.162 12.16 12.16 12.16 0 0 1 12.162-12.16m0 22.6a10.443 10.443 0 1 0-10.444-10.444 10.444 10.444 0 0 0 10.444 10.444" fill="#c6c6c6"/><path data-name="Path 30734" d="M63.342 32.421a7.04 7.04 0 0 1-2.055 5.356 7.321 7.321 0 0 1-5.255 1.955 7.425 7.425 0 0 1-5.307-1.955 7 7 0 0 1-2.07-5.356V17.328H46.97v15.093a8.445 8.445 0 0 0 2.543 6.486 9.174 9.174 0 0 0 6.519 2.373 9.069 9.069 0 0 0 6.468-2.373 8.472 8.472 0 0 0 2.528-6.486V17.328h-1.686z" fill="#767676"/><path data-name="Path 30735" d="M27.387 40.913h1.718V30.098h11.554v-1.449H29.107v-9.871h12.465v-1.449H27.387z" fill="#767676"/><path data-name="Rectangle 24" fill="#767676" d="M92.917 17.33h1.718v23.582h-1.718z"/><path data-name="Path 30736" d="M133.248 20.328l15.124 20.585h1.382V17.33h-1.682v20.549L132.945 17.33h-1.415v23.583h1.718z" fill="#767676"/><path data-name="Path 30737" d="M81.196 28.718l-4.313-1.346q-4.177-1.283-4.177-4.246a3.914 3.914 0 0 1 1.685-3.367 7.19 7.19 0 0 1 4.31-1.215 12.949 12.949 0 0 1 6.807 1.785l.74-1.379a14.208 14.208 0 0 0-7.477-1.988 9.033 9.033 0 0 0-5.628 1.667 5.363 5.363 0 0 0-2.188 4.5q0 4.177 5.425 5.795l4.31 1.313q4.581 1.414 4.582 4.716a4.14 4.14 0 0 1-1.718 3.421 7.471 7.471 0 0 1-4.683 1.33 13.913 13.913 0 0 1-4.025-.624 13.4 13.4 0 0 1-3.588-1.634l-.843 1.382a15.309 15.309 0 0 0 4.01 1.785 15.914 15.914 0 0 0 4.513.673 9.063 9.063 0 0 0 5.88-1.785 5.668 5.668 0 0 0 2.206-4.616q0-4.311-5.828-6.165" fill="#767676"/><path data-name="Path 30738" d="M82.375 54.027h-4.688v-4.272h-.886v8.846h.886v-3.843h4.688v3.843h.886v-8.846h-.886z" fill="#767676"/><path data-name="Path 30739" d="M96.837 49.618a4.582 4.582 0 1 0 3.241 1.338 4.421 4.421 0 0 0-3.241-1.338m2.6 7.228a3.65 3.65 0 0 1-5.2-.005 3.815 3.815 0 0 1 0-5.322 3.644 3.644 0 0 1 5.2-.005 3.847 3.847 0 0 1 0 5.333" fill="#767676"/><path data-name="Path 30740" d="M118.462 49.756l-3.3 7.583-3.311-7.583H110.8l-.832 8.846h.909l.683-7.557 3.234 7.444h.722l3.247-7.444.67 7.557h.909l-.822-8.846z" fill="#767676"/><path data-name="Path 30741" d="M129.599 58.603h5.7v-.745h-4.816v-3.211h4.462v-.745h-4.462v-3.4h4.816v-.745h-5.7z" fill="#767676"/><path data-name="Path 30742" d="M149.534 54.824a4.488 4.488 0 0 0-1.688-.873l-1.58-.491a2.887 2.887 0 0 1-1.117-.583 1.173 1.173 0 0 1-.362-.9 1.3 1.3 0 0 1 .575-1.143 2.666 2.666 0 0 1 1.536-.4 5.171 5.171 0 0 1 2.463.632l.38-.735a6.052 6.052 0 0 0-2.843-.719 3.512 3.512 0 0 0-2.191.632 2.061 2.061 0 0 0-.83 1.731c0 1.1.717 1.857 2.147 2.289l1.569.465a3.322 3.322 0 0 1 1.194.588 1.258 1.258 0 0 1 .421 1.007 1.355 1.355 0 0 1-.593 1.161 2.7 2.7 0 0 1-1.618.429 5.391 5.391 0 0 1-2.905-.807l-.442.681a6.257 6.257 0 0 0 3.362.948 3.583 3.583 0 0 0 2.26-.658 2.144 2.144 0 0 0 .848-1.793 1.873 1.873 0 0 0-.588-1.467" fill="#767676"/></g></g></svg>