<svg xmlns="http://www.w3.org/2000/svg" width="136.319" height="72.055" viewBox="0 0 136.319 72.055"><defs><clipPath id="a"><path data-name="Rectangle 27" fill="#fff" d="M0 0h136.319v72.055H0z"/></clipPath></defs><g data-name="Group 26" clip-path="url(#a)" fill="#fff" opacity=".406"><path data-name="Path 30743" d="M9.787 45.302a2.941 2.941 0 0 1 1.637.385c-.157-.573-.271-.881-.271-.971a.3.3 0 0 1 .075-.178H6.802a.342.342 0 0 1 .077.178c0 .1-.13.408-.28.971a2.947 2.947 0 0 1 1.639-.385h.22v3.177a.606.606 0 0 1-.364.534h1.859a.8.8 0 0 1-.4-.781v-2.93z"/><path data-name="Path 30744" d="M17.243 44.536h-1.865c.27.119.385.366.385.777v.9h-2.436v-.9c0-.412.109-.659.383-.777h-1.857c.272.119.377.366.377.777v2.913c0 .414-.105.663-.377.781h1.857c-.274-.119-.383-.368-.383-.781v-1.2h2.436v1.2c0 .414-.115.663-.385.781h1.865c-.272-.119-.383-.368-.383-.781v-2.913c0-.412.111-.659.383-.777"/><path data-name="Path 30745" d="M21.254 48.241h-1.876v-1.128h1.727a.518.518 0 0 0 .467-.255l.377-.634a1.527 1.527 0 0 1-.6.121h-1.971V45.3h1.781a2.955 2.955 0 0 1 1.639.385c-.157-.573-.28-.879-.28-.971a.289.289 0 0 1 .077-.178h-4.691c.262.119.375.36.375.764v2.941c0 .406-.113.653-.375.766h4.758a.343.343 0 0 1-.082-.2 9.011 9.011 0 0 1 .423-1.107 2.646 2.646 0 0 1-1.746.536"/><path data-name="Path 30746" d="M82.865 59.701h2.283a.171.171 0 0 1-.038-.094 4.892 4.892 0 0 1 .2-.53 1.268 1.268 0 0 1-.835.257h-.9v-.533h.829a.249.249 0 0 0 .224-.124l.18-.3a.747.747 0 0 1-.289.057h-.944v-.5h.854a1.413 1.413 0 0 1 .787.182c-.075-.274-.134-.421-.134-.465a.138.138 0 0 1 .036-.084h-2.253c.128.056.182.172.182.368v1.409c0 .193-.054.314-.182.368"/><path data-name="Path 30747" d="M86.531 59.364a2.076 2.076 0 0 1-.936-.241l.132.605a.3.3 0 0 1 .107-.023c.134 0 .375.052.7.052.714 0 1.1-.27 1.1-.733 0-.371-.258-.548-.768-.64-.458-.084-.707-.063-.707-.274 0-.14.138-.214.4-.214a1.525 1.525 0 0 1 .827.209l.132-.544a.218.218 0 0 1-.088.017c-.167 0-.458-.069-.852-.069-.613 0-.973.289-.973.674 0 .335.259.527.787.6.425.059.678.073.678.3 0 .19-.182.283-.542.283"/><path data-name="Path 30748" d="M88.646 57.927h.1v1.52a.284.284 0 0 1-.172.257h.894a.383.383 0 0 1-.2-.373v-1.4h.111a1.421 1.421 0 0 1 .787.182c-.075-.274-.134-.419-.134-.465a.136.136 0 0 1 .038-.084h-2.113a.173.173 0 0 1 .036.084c0 .05-.061.2-.134.465a1.422 1.422 0 0 1 .787-.182"/><path data-name="Path 30749" d="M90.908 59.465c0-.159-.123-.253-.329-.253s-.333.107-.333.264.113.245.322.245.341-.1.341-.257"/><path data-name="Path 30750" d="M93.308 57.954a.147.147 0 0 1-.13-.065v.473c.075-.056.26-.015.5-.14v.986a.539.539 0 0 1-.2.5h.908a.543.543 0 0 1-.2-.5v-1.536c0-.052.006-.084.057-.111h-.488a.1.1 0 0 1 .046.079c0 .128-.236.314-.484.314"/><path data-name="Path 30751" d="M94.949 59.111c0 .406.349.647 1 .647s1-.26 1-.731c0-.283-.144-.425-.473-.517a.458.458 0 0 0 .354-.452c0-.335-.3-.55-.825-.55-.58 0-.923.237-.923.588a.408.408 0 0 0 .383.412.609.609 0 0 0-.513.6m1.004-1.232c.236 0 .387.109.387.253s-.134.247-.387.247-.385-.107-.385-.253.14-.247.385-.247m-.011.854c.289 0 .479.14.479.333s-.19.335-.479.335-.471-.146-.471-.335.184-.333.471-.333"/><path data-name="Path 30752" d="M99.377 59.409v-.287a.69.69 0 0 1-.582.222h-.772v-.013c0-.159.113-.259.337-.36a4.527 4.527 0 0 0 .72-.37.61.61 0 0 0 .259-.513c0-.371-.278-.584-.8-.584a6.927 6.927 0 0 0-.833.107.286.286 0 0 1-.159-.044v.615a1.772 1.772 0 0 1 .9-.314c.23 0 .364.1.364.236 0 .155-.14.276-.417.412a2.464 2.464 0 0 0-.728.446.7.7 0 0 0-.184.53.263.263 0 0 1-.082.214h2.083c-.1-.034-.1-.113-.1-.266z"/><path data-name="Path 30753" d="M100.066 57.634a.692.692 0 0 1-.025.094l-.151.41a.977.977 0 0 1 .647-.22h.636a4.322 4.322 0 0 0-.576.971 1.6 1.6 0 0 0-.119.582.291.291 0 0 1-.09.234h.728a.393.393 0 0 1-.1-.289 2.187 2.187 0 0 1 .427-1.164 2.171 2.171 0 0 1 .544-.691h-1.953a.146.146 0 0 1 .033.075"/><path data-name="Path 30755" d="M64.057 59.702l-.406-.875c-.094-.19-.193-.379-.289-.571a7.823 7.823 0 0 1-1.513 4.577l.666.49a8.657 8.657 0 0 0 1.543-3.621"/><path data-name="Path 30756" d="M55.473 61.655a4.4 4.4 0 0 0 1.316-8.594 21.338 21.338 0 0 1 3.533-8.2 23.579 23.579 0 0 0 .274 3.46 67.6 67.6 0 0 1 1.145 1.555 22.238 22.238 0 0 1-.594-5.136 22.952 22.952 0 0 1 .126-2.384 22.093 22.093 0 0 0-5.4 11.124 3.8 3.8 0 1 1-.789 0 22.137 22.137 0 0 0-5.408-11.124 22.407 22.407 0 0 1 .124 2.384 22.554 22.554 0 0 1-.588 5.136c.371-.523.751-1.047 1.141-1.555a23.319 23.319 0 0 0 .274-3.46 21.248 21.248 0 0 1 3.531 8.2 4.4 4.4 0 0 0 1.317 8.594"/><path data-name="Path 30757" d="M49.496 42.145l-.025-.228.157.169a22.306 22.306 0 0 1 5.613 11.451l.011.082-.08.008a3.645 3.645 0 1 0 .6 0l-.084-.008.015-.082a22.3 22.3 0 0 1 5.614-11.452l.159-.169-.029.228a23.031 23.031 0 0 0-.149 2.6 22.318 22.318 0 0 0 .676 5.469c.6.852 1.172 1.72 1.718 2.61a21.413 21.413 0 0 1-1.566-8.079 21.756 21.756 0 0 1 .144-2.5l.32-2.757-1.879 2.039a23.2 23.2 0 0 0-5.234 9.307 23.22 23.22 0 0 0-5.237-9.308l-1.88-2.039.322 2.757a22.1 22.1 0 0 1 .144 2.5 21.45 21.45 0 0 1-1.566 8.079q.821-1.336 1.718-2.61a22.226 22.226 0 0 0 .676-5.469 22.544 22.544 0 0 0-.151-2.6m6.434 14.513a2.454 2.454 0 0 0 .55-.611c-.025-.115.019-.2-.008-.232s-.149 0-.222-.149a.285.285 0 0 1 .017-.316.289.289 0 0 1 .318-.021c.149.075.113.19.149.226s.224-.075.412.111.113.339.186.412.151 0 .264.113.224.224.26.262 0 .073-.036.111-.169.169-.169.169-.132.13-.169.169-.077.075-.113.038-.149-.149-.26-.264-.04-.186-.113-.26c-.052-.052-.136-.034-.245-.075a2.668 2.668 0 0 0-.6.542c-.09.1-.226.26-.373.435.31.26.615.517.747.632a4.988 4.988 0 0 1 .879.915.326.326 0 0 1-.13.28v.006a.322.322 0 0 1-.281.126 5.091 5.091 0 0 1-.917-.877l-.605-.716c-.255.3-.5.588-.607.716a4.969 4.969 0 0 1-.915.877.326.326 0 0 1-.281-.126v-.006a.331.331 0 0 1-.13-.28 5.123 5.123 0 0 1 .879-.915c.132-.115.437-.371.747-.632l-.373-.435a2.626 2.626 0 0 0-.6-.542c-.109.04-.193.023-.245.075-.075.075 0 .149-.109.26s-.228.226-.264.264-.073 0-.113-.038-.169-.169-.169-.169l-.171-.166c-.038-.038-.073-.075-.038-.111s.149-.151.262-.262.186-.038.26-.113 0-.222.19-.412.371-.073.41-.111 0-.151.149-.226a.241.241 0 0 1 .339.337c-.077.149-.19.115-.226.149s.017.117-.01.232a2.52 2.52 0 0 0 .551.611l.458.394c.186-.157.35-.3.458-.394"/><path data-name="Path 30758" d="M63.304 63.9a9.6 9.6 0 0 0 1.411-2.78l-.547-1.183a8.744 8.744 0 0 1-1.532 3.472z"/><path data-name="Path 30759" d="M54.138 46.109c.14.262.278.53.408.8q.457-.529.927-1.051c.312.349.624.7.929 1.051.13-.266.266-.534.406-.8-.437-.5-.879-.988-1.335-1.473q-.678.727-1.335 1.473"/><path data-name="Path 30760" d="M67.172 38.906c.038-.1.071-.209.109-.312a17.249 17.249 0 0 0-23.618 0l.105.312a16.945 16.945 0 0 1 23.4 0"/><path data-name="Path 30761" d="M57.314 45.206q-.583-.658-1.185-1.3l-.657-.7-.657.7c-.4.427-.8.862-1.183 1.3.147.251.293.506.429.764q.664-.761 1.356-1.5l.056-.057.056.057c.46.49.913.99 1.356 1.5.138-.259.283-.513.431-.764"/><path data-name="Path 30762" d="M50.141 5.162a2.538 2.538 0 0 0 .753.521 3.671 3.671 0 0 0 .867.266l.216.031.054.008c.025 0 .038 0 .059.006l.111.006a3.2 3.2 0 0 0 .45.015 2.924 2.924 0 0 0 .448-.034l.224-.033c.075-.011.147-.036.22-.054a3.164 3.164 0 0 0 .839-.35 3.274 3.274 0 0 0 .7-.573 3.165 3.165 0 0 0 .469-.661l2.673.086 2.752.216c.458.052.911.117 1.371.174l1.373.176 2.721.473c.45.09.9.19 1.35.287l1.352.287 2.681.68 2.656.772 2.641.837-2.614-.923-2.641-.829-2.676-.738-1.344-.316c-.454-.105-.9-.216-1.354-.314l-1.363-.26c-.454-.082-.906-.17-1.363-.249l-1.376-.186c-.46-.059-.917-.126-1.377-.18l-1.381-.119-1.386-.115-2.776-.065h-.094l-.042.1a2.449 2.449 0 0 1-.23.331 3.149 3.149 0 0 1-.274.3 2.96 2.96 0 0 1-.649.475 3.037 3.037 0 0 1-.743.28 1.993 1.993 0 0 1-.2.042l-.2.025a3.139 3.139 0 0 1-.4.017 3.222 3.222 0 0 1-.4-.025l-.1-.01h-.04l-.054-.011-.214-.033a3.561 3.561 0 0 1-.737-.237 2.12 2.12 0 0 1-.611-.427 1.493 1.493 0 0 1-.368-.6 1.434 1.434 0 0 1-.027-.68 1.483 1.483 0 0 1 .32-.63 1.947 1.947 0 0 1 .584-.473 2.956 2.956 0 0 1 .751-.278 1.688 1.688 0 0 1 .2-.038l.1-.017.105-.013a2.131 2.131 0 0 1 .4 0 2.243 2.243 0 0 1 .787.23 1.372 1.372 0 0 1 .6.551.654.654 0 0 1 .065.4.771.771 0 0 1-.2.371.731.731 0 0 0 .266-.358.722.722 0 0 0-.021-.458 1.185 1.185 0 0 0-.249-.389 1.661 1.661 0 0 0-.356-.289 2.451 2.451 0 0 0-.849-.318 2.8 2.8 0 0 0-.456-.038l-.113.006-.111.01c-.075.008-.149.01-.224.023a2.669 2.669 0 0 0-1.608.781 1.94 1.94 0 0 0-.444.814 1.792 1.792 0 0 0 .021.933 1.984 1.984 0 0 0 .484.791"/><path data-name="Path 30763" d="M73.06 30.988a3.8 3.8 0 0 1-.377-1.13L70.73 11.389a1.3 1.3 0 0 1 .3-.94q-2.347-.641-4.734-1.12a2.311 2.311 0 0 1 .3 1.074s-1.952 17.554-1.956 17.562a2.654 2.654 0 0 1-.373.95c.892.146 1.777.314 2.658.5a2.375 2.375 0 0 1-.3-1.082l.737-6.6q.727.161 1.451.331l.733 6.943a1.244 1.244 0 0 1-.295.942q1.919.474 3.8 1.046m-3.512-9.643l-.53-.128-.165-.038c-.144-.034-.285-.065-.429-.1-.23-.054-.46-.105-.691-.157l-.184-.042-.237-.05-.163-.034-.124-.027-.119-.027-.257-.056-.038-.008-.04.36-.042.4-.056.506-.031.272-.034.295-.048.429-.038.345-.034.3-.14 1.249-.052.475-.112 1.071-.054.479-.034.3-.052.479-.033.3-.034.3c0 .019-.006.04-.006.059-.056-.008-.107-.019-.161-.027l-.128-.023c.011-.063.023-.124.029-.186l.042-.381c.011-.086.021-.184.033-.295l.054-.479.063-.563.023-.213c.011-.1.023-.193.034-.3l.025-.2.149-1.346c.017-.155.034-.316.054-.477s.038-.341.057-.517c.01-.086.019-.17.027-.259.011-.1.021-.2.033-.295.017-.161.034-.32.054-.483l.069-.611.017-.163c.011-.1.021-.2.033-.295l.04-.349.046-.427c0-.021.006-.044.008-.065.033-.285.063-.573.1-.86l.034-.329.034-.3.05-.473.034-.3c.021-.161.038-.318.054-.477l.034-.3c0-.031.006-.057.01-.088l.077-.687q.029-.227.052-.454c.013-.107.025-.213.036-.32l.019-.169.067-.607c.017-.163.036-.322.052-.479l.033-.3.052-.479c.011-.1.021-.2.033-.295.021-.167.038-.326.056-.479l.033-.3q.023-.213.046-.408t.04-.368c.021-.172.038-.333.054-.479.013-.105.023-.2.033-.295l.027-.234.046-.41c.109.023.22.048.327.073l-.136 1.162-.034.287-.057.49-.054.469-.034.295-.056.477-.034.295-.057.475-.034.295-.057.475-.034.3-.054.477-.033.295-.056.479-.044.385-.042.387-.036.3-.054.475-.036.295-.056.477-.034.3-.057.475-.034.3-.029.245.077.017.343.075.276.059.069.015c.335.077.67.149 1 .228l.126.029.7.167.354.084v-.063l-.015-.165-.077-.772-.281-2.882v-.034l-.634-6.472c.259.061.521.128.779.193.05.011.1.023.146.036.128.033.257.061.387.1a1.93 1.93 0 0 0 0 .446l.04.417-.667-.664.036.368.649.647.065.6-.657-.657.036.368.659.659.061.592-.663-.664.034.368.668.666.063.6-.674-.672.036.366.678.676.061.6-.682-.682.036.364.684.686.063.6-.689-.691.036.366.691.693.065.594-.7-.7.034.364.7.7.063.6-.708-.707.036.364.712.712.061.592-.716-.714.036.366.718.718.063.6-.724-.724.025.253.011.115.728.726.063.594-.728-.728.038.37.728.73.061.592-.728-.728.038.368.73.73.063.594-.73-.73.038.37.731.73.061.6-.73-.73.038.37.73.73.063.594-.73-.731.04.37.731.731.061.6-.731-.731.04.37.73.73.063.594-.73-.73.038.37.731.731.061.594-.73-.731.04.37.728.731.063.594-.73-.731.038.37.731.73.01.107a76.632 76.632 0 0 0-1.384-.377 2.363 2.363 0 0 0 0-.435l-.327-3.108-.057-.532-.268-2.535-.038-.356-.01-.088-.029-.281-.04-.385-.015-.142-.013-.121zm-1.414-6.215l.475 4.845c-.337-.082-.676-.157-1.015-.232z"/><path data-name="Path 30764" d="M49.096 62.834a7.807 7.807 0 0 1-1.513-4.575c-.1.19-.193.379-.289.569l-.408.875a8.667 8.667 0 0 0 1.543 3.621z"/><path data-name="Path 30765" d="M48.031 29.399a23 23 0 0 1 7.1-1.227v-2.371a1.888 1.888 0 0 1-1.013.375 25.087 25.087 0 0 0-2.706.291v-7.858a29.602 29.602 0 0 1 1.689-.163v-2.035c-.565.038-1.13.088-1.689.155v-6.124q1.339-.132 2.706-.178a1.767 1.767 0 0 1 1.013.318l-.003-2.367a43.309 43.309 0 0 0-7.1.64 1.632 1.632 0 0 1 .339.971v18.399a2.642 2.642 0 0 1-.339 1.178m3.442-11.978h.044c.239-.029.481-.054.726-.079v.3c-.259.025-.515.056-.77.084-.056.006-.109.011-.161.019h-.027l-.446.056-.274-.272.364-.042.3-.034zm-2.039-7.912c.155-.025.314-.044.471-.063.1-.013.193-.027.289-.038l.347-.044c.029 0 .056-.008.084-.01l.042-.006c.1-.011.2-.019.3-.031.159-.015.32-.034.481-.05.115-.01.226-.025.341-.034.033 0 .067 0 .1-.006l.352-.025h.006c.105-.008.209-.01.312-.017l-.01-.01c.165-.011.329-.027.5-.034l.015.015c.1-.006.209-.013.314-.017l-.013-.013c.17-.008.339-.015.511-.021v.006c.128-.006.257-.019.385-.023v.3h-.169c-.253.01-.507.025-.76.038l-.132.006c-.23.011-.458.023-.687.04l-.49.04c-.1.008-.2.015-.3.025-.132.011-.264.019-.394.033l-.634.063-.073.006-.077.008v.109l-.092-.092c-.1.013-.191.027-.289.038l.381.383v.536l-.634-.634v.334l.63.632v.534l-.63-.634v.329l.63.634v.53l-.63-.632v.329l.63.632v.532l-.63-.634v.331l.63.632v.532l-.63-.632v.329l.63.632v.532l-.63-.632v.329l.63.634v.53l-.63-.632v.329l.63.632v.532l-.63-.634v.331l.63.634v.53l-.63-.632v.329l.63.632v.532l-.63-.634v.331l.63.632v.532l-.63-.634v.331l.63.632v.532l-.63-.634v.329l.63.634v.532l-.63-.634v.331l.63.634v.53l-.63-.634v.338l.63.634v.532l-.63-.634v.329l.63.634v.53l-.63-.632v.331l.63.632v.53l-.63-.632v.329l.63.634v.532l-.63-.634v.329l.63.634v.53l-.63-.632v.329l.63.634v.53l-.63-.632v.329l.63.632v.157l.138-.021.283-.046.454-.075.135-.013.159-.021c.155-.025.308-.048.463-.069l.006.008c.1-.013.193-.029.291-.04l.291-.034h.044l.14-.015h.006c.1-.011.2-.015.3-.025l-.006-.006c.163-.015.327-.031.49-.042l.008.008.3-.027.119-.008a.665.665 0 0 0 .105-.008v.3c-.586.031-1.17.08-1.746.153q-.643.078-1.283.193h-.011c-.2.036-.387.073-.582.113-.044.01-.09.017-.134.025l-.6-.594v.331l.324.326c-.117.025-.234.052-.352.079l-.341.086-.31.079V9.825c0-.065-.008-.128-.011-.191 0-.031 0-.063-.006-.094l.213-.027"/><path data-name="Path 30766" d="M63.589 10.881a2.406 2.406 0 0 1 1.015.5V9.014a54.334 54.334 0 0 0-8.46-.8v2.368a1.633 1.633 0 0 1 1.017-.312c.567.019 1.128.048 1.691.086v16.912a1.715 1.715 0 0 1-.339.994c1.252.073 2.489.2 3.721.352a2.037 2.037 0 0 1-.339-1.055V10.645c.567.069 1.13.147 1.693.236m-1.854-1.128l-.209-.027-.345-.042-.149-.021v.249l-.26-.26c-.119-.011-.239-.023-.362-.033l.622.622v.532l-.632-.634v.331l.632.634v.529l-.632-.63v.329l.632.632v.532l-.632-.632v.332l.632.634v.529l-.632-.633v.331l.632.632v.537l-.632-.634v.331l.632.634v.532l-.632-.634v.329l.632.632v.532l-.632-.632v.327l.632.634v.53l-.632-.632v.331l.632.632v.53l-.632-.63v.329l.632.632v.53l-.632-.632v.329l.632.634v.532l-.632-.634v.329l.632.634v.532l-.632-.634v.331l.632.632v.532l-.632-.632v.327l.634.634v.532l-.634-.634v.329l.634.634v.532l-.634-.634v.329l.634.632v.532l-.634-.634v.331l.634.634v.53l-.634-.63v.331l.634.634v.535l-.634-.634v.329l.634.634v.532l-.634-.634v.329l.634.632v.532l-.634-.634v.331l.634.632v.126l-.448-.04-.186-.188v.169c-.23-.021-.461-.046-.689-.065.006-.065.008-.138.008-.209V9.546l-.263-.02-.542-.038a64.122 64.122 0 0 0-1.722-.084h-.176v-.3c.1 0 .2.01.3.011l.347.019.001-.008c.186.006.373.017.559.029l.008.008c.119.006.234.011.35.019l-.006-.008c.115.006.232.015.349.025.2.013.391.031.586.048l-.008-.008c.193.015.387.033.582.052l.011.01c.121.011.241.021.364.034l-.011-.009c.2.019.4.04.592.063l.14.011.234.033c.2.021.4.044.605.069l.015.017c.126.015.253.033.379.05l-.015-.015.619.086.011.011c.126.019.253.033.379.052l.335.048v.275h-.015a59.415 59.415 0 0 0-1.718-.237z"/><path data-name="Path 30767" d="M126.03 19.963c.04.029.08.057.115.084s.082.044.117.067a1.05 1.05 0 0 0 .216.088 1.386 1.386 0 0 0 .182.04.6.6 0 0 0 .134.01h.113l-.111-.023a1.033 1.033 0 0 1-.291-.1 1.3 1.3 0 0 1-.186-.113.677.677 0 0 1-.1-.071c-.033-.029-.063-.059-.1-.09a.61.61 0 0 1-.094-.1.92.92 0 0 1-.077-.118l-.082-.13a3.207 3.207 0 0 0-.063-.146 1.349 1.349 0 0 1-.077-.678 1.54 1.54 0 0 1 .038-.182c.023-.059.042-.119.063-.18a1.953 1.953 0 0 1 .2-.343 2.476 2.476 0 0 1 .278-.312c.042-.042.113-.094.165-.142a2.136 2.136 0 0 1 .178-.124 3.151 3.151 0 0 1 .785-.385 3.416 3.416 0 0 1 1.718-.1 3.261 3.261 0 0 1 .758.247 2.344 2.344 0 0 1 .592.394 1.415 1.415 0 0 1 .49.919.788.788 0 0 1 0 .176.673.673 0 0 1-.011.134l-.016.115s.015-.036.04-.105a.594.594 0 0 0 .034-.132.928.928 0 0 0 .029-.182 1.178 1.178 0 0 0-.065-.506 1.658 1.658 0 0 0-.347-.573 2.367 2.367 0 0 0-.624-.475 3.156 3.156 0 0 0-.821-.3 3.641 3.641 0 0 0-.931-.086 3.416 3.416 0 0 0-.952.174 3.114 3.114 0 0 0-.86.446c-.063.05-.132.1-.188.149s-.107.094-.17.159a2.81 2.81 0 0 0-.3.36 1.98 1.98 0 0 0-.22.4c-.025.071-.046.144-.069.213a1.386 1.386 0 0 0-.038.216 1.442 1.442 0 0 0 .546 1.31"/><path data-name="Path 30768" d="M77.459 12.477q-1.847-.655-3.721-1.237a2.558 2.558 0 0 1 .339 1.12v17.923a1.616 1.616 0 0 1-.339.911c2.4.743 4.766 1.591 7.1 2.5v-2.706a1.536 1.536 0 0 1-1.015-.052c-.877-.331-1.756-.657-2.643-.967l-.063-.021V13.37a1.641 1.641 0 0 1 .339-.9m-1.166.511a1.768 1.768 0 0 0-.015.105l-.169-.167c.061.021.123.038.184.061m-.134 18.09l-.536-.534v.033a1.847 1.847 0 0 1-.023.276l.065.063-.067-.021c-.23-.075-.46-.155-.687-.226a2.13 2.13 0 0 0 .034-.373V12.533c.22.073.446.151.668.224h.006v.013l.632.636v.53l-.628-.636v.331l.632.632v.532l-.632-.634v.331l.632.632v.53l-.632-.632v.331l.632.632v.532l-.632-.632v.327l.632.634v.53l-.632-.632v.329l.632.632v.532l-.632-.632v.331l.632.632v.53l-.632-.628v.331l.632.632v.537l-.632-.634v.329l.632.634v.532l-.632-.634v.329l.632.634v.53l-.632-.634v.331l.632.634v.53l-.632-.632v.329l.632.634v.532l-.632-.634v.329l.632.634v.527l-.632-.634v.334l.632.632v.532l-.632-.634v.331l.632.632v.532l-.632-.632v.327l.632.632v.536l-.632-.634v.329l.632.632v.532l-.632-.632v.327l.632.634v.532l-.632-.634v.331l.632.632v.53l-.632-.632v.331l.632.634v.529l-.632-.629v.331l1.344 1.344-.808-.28m3.361.68a2.63 2.63 0 0 0 .458.128v.425l-.613-.613.155.059m-.687-.254l.831.831c-.285-.107-.569-.214-.848-.314l-.823-.827c.278.1.555.2.841.31m-1.36-.5l.827.827c-.28-.1-.557-.2-.829-.3l-.821-.821.245.086.578.2"/><path data-name="Path 30769" d="M17.59 31.013v-.034c-.021-.176-.021-.4-.029-.647s0-.534.013-.843c0-.079 0-.157.006-.236s.015-.163.023-.245c.015-.167.033-.339.048-.515.056-.35.1-.724.184-1.1.067-.381.174-.768.276-1.162.123-.389.237-.787.389-1.174.136-.393.3-.77.461-1.147.084-.186.172-.368.257-.55l.126-.27c.042-.09.092-.174.136-.26l.264-.509c.086-.166.184-.322.272-.477.172-.314.358-.6.521-.864s.331-.5.469-.71.268-.391.373-.538l.335-.467-.354.45c-.113.144-.253.316-.4.525s-.324.435-.492.7-.366.54-.548.848c-.1.155-.191.312-.291.471s-.186.335-.28.506c-.048.086-.1.17-.146.259s-.09.178-.134.268c-.092.182-.184.364-.27.55-.167.377-.345.756-.488 1.149-.159.389-.283.791-.412 1.181-.113.4-.226.787-.3 1.176-.1.381-.146.76-.207 1.116-.021.178-.038.354-.057.521l-.027.251a3.331 3.331 0 0 0-.013.241c-.015.316-.031.605-.019.864s0 .479.021.664l.079.933a2.545 2.545 0 0 1 .239-.617 2.171 2.171 0 0 0-.124.249 3.283 3.283 0 0 1 .1-.553"/><path data-name="Path 30770" d="M13.092 36.93l-1.664-1.662a5.735 5.735 0 0 0 1.664 1.662"/><path data-name="Path 30771" d="M32.473 15.076l5.073 9.017 5.076-12.849v18.444a6.074 6.074 0 0 1-.674 2.88 22.934 22.934 0 0 1 5.748-3.05s-.678-.454-.678-1.913V1.478A2.338 2.338 0 0 1 47.694 0a51.627 51.627 0 0 0-5.75 1.2 1.367 1.367 0 0 1 .061 1.388c-.209.534-4.441 11.246-4.441 11.246l-4.414-7.84a1.577 1.577 0 0 1 0-1.524 50.477 50.477 0 0 0-22.728 21.209c-3.784 6.867-.561 13.448 7.165 13 4.8-.283 7.139-2.955 7.518-5.731a4.024 4.024 0 0 0-5.163-4.437 3.368 3.368 0 0 0-2.353 2.507c.029.312.029.293.029.293v.01a2.107 2.107 0 0 1 2.129-1.128 2.626 2.626 0 0 1 2.075 2.624 4.081 4.081 0 0 1-4.207 4.483c-2.26 0-4.534-1.729-5.163-4.887-.854-4.314.741-8.944 4.075-13.239a34.629 34.629 0 0 1 6.174-6.374c2.1-1.718 5.373-3.9 5.373 1.767v39.109a2.412 2.412 0 0 1-1.689 2.6A25.119 25.119 0 0 1 36.804 64.6a22.882 22.882 0 0 1-4.331-13.435zM20.932 37.015l.006-.006a4.3 4.3 0 0 0 .473-.444 4.9 4.9 0 0 0 .8-1.176c.019-.044.044-.084.061-.128.052-.113.1-.228.138-.345.023-.067.046-.134.067-.2.04-.124.077-.251.105-.379.01-.04.015-.08.023-.121a5.286 5.286 0 0 0 .092-.743c0-.105.008-.213.008-.318 0-.134 0-.268-.013-.4 0-.027-.008-.05-.01-.075a5.358 5.358 0 0 0-.079-.517 4.45 4.45 0 0 0-.153-.55 3.793 3.793 0 0 0-.191-.46 1.44 1.44 0 0 0-.056-.111 3.674 3.674 0 0 0-.249-.4 3.349 3.349 0 0 0-.214-.272 3.087 3.087 0 0 0-.2-.211c-.048-.048-.1-.092-.151-.136a3.78 3.78 0 0 0-.213-.165c-.056-.038-.111-.077-.169-.111a2.658 2.658 0 0 0-.326-.174l-.084-.036a2.989 2.989 0 0 0-.408-.134c-.033-.008-.063-.019-.1-.025l.036-.011.05-.015a3.468 3.468 0 0 1 .95-.134 2.58 2.58 0 0 1 .3.019 2.941 2.941 0 0 1 .393.061l-.006-.006.042.013a2.8 2.8 0 0 1 .349.105c.036.011.075.021.111.036a3.531 3.531 0 0 1 .375.178h-.011a3.045 3.045 0 0 1 1.526 2.058l-2.17-2.168c-.077-.006-.151-.017-.23-.017-.036 0-.073.008-.109.008l2.568 2.566a2.787 2.787 0 0 1 0 .536l-1.551-1.565a3.809 3.809 0 0 1 .35.682l1.173 1.176c-.023.151-.05.3-.084.446l-.864-.866c.025.126.04.257.056.387l.735.735c-.04.134-.086.264-.138.4l-.565-.569c0 .111.006.224 0 .333l.471.471a7.28 7.28 0 0 1-.176.354l-.347-.349a6.288 6.288 0 0 1-.05.28l.274.276a8.808 8.808 0 0 1-.209.322l-.17-.17c-.025.084-.056.165-.086.247l.111.111c-.075.1-.159.191-.241.287l-.019-.019a.7.7 0 0 0-.027.067c-.038.04-.082.077-.123.117l.008.008c-.086.088-.178.17-.274.257-.027.023-.046.048-.073.069s-.075.052-.107.08c-.1.08-.2.159-.3.234l-.01-.011c-.065.046-.124.1-.191.14l-.038.023a5.417 5.417 0 0 1-.18.111c-.038.023-.073.048-.111.069l-.006-.008c-.071.04-.144.077-.216.115l.011.011q-.175.089-.356.172a.319.319 0 0 0-.044.023l.033-.033M12.868 23.5l-.075.169q-.192.434-.36.867c-.017.042-.031.082-.046.124a14.801 14.801 0 0 0-.305.872q-.144.457-.262.911l-.021.044.008.01q-.052.215-.1.431l-.082-.082c-.036.075-.073.149-.107.222l.13.132c-.029.149-.059.3-.084.446l-.22-.218c-.033.075-.071.149-.1.226l.28.278c-.025.155-.046.314-.065.467l-.356-.356c-.031.08-.059.161-.088.241l.414.414c-.017.165-.031.329-.04.492l-.515-.517c-.029.086-.052.172-.077.257l.573.573c-.008.174-.008.349-.008.523l-.67-.67c-.021.09-.046.178-.065.266l.737.737c.006.184.013.371.025.555l-.854-.854c-.017.1-.025.2-.036.293l.919.919c.017.2.042.4.071.6l-1.053-1.046c-.01.1-.023.2-.029.3l1.143 1.145c.017.1.033.207.052.312s.054.236.082.352l-1.279-1.274v.329l1.4 1.4a7.073 7.073 0 0 0 .308.841l-1.646-1.649c.017.128.031.257.054.383l1.917 1.917a6.4 6.4 0 0 0 3.084 2.866 9.155 9.155 0 0 1-.923-.174l-3.9-3.9c.048.155.082.316.14.467l3.307 3.307c-.136-.042-.259-.1-.389-.146.023.011.044.029.069.04-.067-.023-.123-.059-.188-.082-.111-.044-.232-.079-.339-.128l-.044-.044a6.547 6.547 0 0 1-.709-.375l.063.061a5.712 5.712 0 0 1-.636-.444c-.034-.027-.065-.057-.1-.084a5.776 5.776 0 0 1-.584-.561 3.284 3.284 0 0 1-.157-.176 5.794 5.794 0 0 1-.544-.753l.008.008-.011-.015a5.7 5.7 0 0 1-.3-.626l-.029-.029c-.015-.036-.025-.077-.04-.113-.056-.134-.1-.274-.146-.414-.034-.1-.077-.2-.105-.3l.025.027c-.044-.153-.1-.3-.13-.458-.04-.2-.071-.416-.1-.63l.017.017c-.015-.128-.042-.251-.052-.381a9.86 9.86 0 0 1-.015-.548l.017.019v-.329l-.005-.011c0-.044.006-.088.01-.132 0-.073.01-.146.015-.218 0-.05.006-.1.01-.147l.008.008c.01-.1.027-.2.04-.293l-.015-.015c.017-.149.046-.3.071-.456.017-.09.036-.182.056-.274v-.006c.031-.144.061-.289.1-.433l.011.013c.023-.088.042-.176.067-.264l-.008-.008c.019-.069.042-.138.061-.207.015-.05.027-.1.044-.147l.015-.056c.025-.08.061-.163.09-.243l-.01-.008c.046-.13.092-.259.142-.389l.01.011c.031-.082.057-.163.09-.243.013-.034.029-.067.042-.1.027-.059.052-.121.079-.182l.038-.088c.033-.075.073-.149.107-.222l-.008-.01c.057-.119.115-.237.174-.356l.01.008c.036-.073.069-.147.109-.22.033-.069.065-.134.1-.2.027-.048.056-.094.08-.146l.121-.209c.065-.113.128-.228.191-.341l.008.008.121-.209-.008-.01c.065-.111.13-.222.2-.333v.006c.04-.069.079-.14.121-.209l.128-.211a15.7 15.7 0 0 1 .2-.324c.069-.109.136-.22.2-.329v.006l.128-.2-.008-.008.209-.324.006.006.128-.2v-.006c.071-.105.14-.214.209-.32.023-.038.046-.077.071-.113-.149.291-.287.584-.419.877m19.8 34.724l-3.2-3.2c-.021.088-.04.178-.067.26l3.431 3.431c.067.207.132.412.207.615-.2-.172-.416-.335-.626-.5l-3.161-3.163c-.033.077-.063.159-.1.232l2.034 2.036q-.715-.494-1.469-.938l-.756-.756c-.042.067-.082.144-.126.2l.115.115a26.432 26.432 0 0 0-.816-.433 3.324 3.324 0 0 0 .308-.44c.015-.025.029-.056.044-.082a3.5 3.5 0 0 0 .222-.483c.011-.029.019-.063.029-.094a3.661 3.661 0 0 0 .149-.588v-.013a4.624 4.624 0 0 0 .061-.753V14.563c0-.188-.006-.377-.013-.569-.008-.132-.019-.266-.029-.4q-.026-.319-.075-.632a6.748 6.748 0 0 0-.082-.437 5.64 5.64 0 0 0-.193-.682 3.908 3.908 0 0 0-.191-.446 2.492 2.492 0 0 0-.084-.163 2.705 2.705 0 0 0-.316-.45 2.282 2.282 0 0 0-.406-.364 2.2 2.2 0 0 0-1.287-.379 3.418 3.418 0 0 0-1.1.2c.439-.32.883-.63 1.331-.938.065-.044.128-.092.193-.136l.079-.054.147-.1c.031-.021.061-.044.094-.063.067-.044.136-.084.2-.128q.161-.1.322-.213l.006.008.2-.128-.008-.01c.107-.069.218-.136.326-.2l.006.006c.067-.042.132-.088.2-.13l.326-.207c.067-.042.138-.08.207-.123.107-.067.22-.136.329-.2l.006.006c.069-.042.138-.082.209-.123l-.02-.008c.111-.067.222-.13.335-.2l.006.006.207-.123.339-.2c.071-.04.14-.082.211-.121l.343-.19v.006c.071-.04.144-.077.214-.117l-.006-.006.343-.188.01.008.214-.115-.006-.006c.216-.115.433-.232.651-.343a2.343 2.343 0 0 0 .213.5l.011.017.892 1.587-1.344-1.332c-.073.038-.144.079-.214.117l1.981 1.982.685 1.218-3.008-3.01c-.071.038-.144.077-.214.117l3.65 3.648.682 1.216-4.676-4.679-.207.123 5.306 5.308.684 1.214-6.325-6.323-.207.121 6.957 6.957.653 1.159.214-.542.266-.674.077-.191.2-.511.117-.3.092-.234.079-.2.41-1.036.149-.385.337-.854.149-.383.109-.276.134-.343.092-.237.095-.225.153-.387.149-.381.092-.237.149-.383.146-.37.1-.249.094-.237.151-.383.337-.854.151-.383.094-.236.153-.379.092-.237.044-.109.2-.509.151-.381.094-.237.1-.247.142-.352a2.753 2.753 0 0 0 .2-1.091c.031-.008.061-.013.094-.023.088-.023.178-.042.266-.063l.429-.1.006.006c.088-.021.178-.042.266-.061v-.006c.146-.031.289-.067.435-.1.09-.019.182-.036.274-.057.146-.031.293-.059.44-.092v.006l.274-.056v-.006l.444-.086.237-.048a2.289 2.289 0 0 0-.027.347v.446l-.3-.3c-.09.017-.18.04-.27.059l.574.574v.53l-1.013-1.011c-.09.019-.18.04-.27.061l1.277 1.277v.532l-1.713-1.711c-.088.021-.178.038-.268.059l1.982 1.982v.533l-2.417-2.417-.04.01a2.061 2.061 0 0 1-.019.26l2.476 2.476v.53l-2.553-2.55a2.98 2.98 0 0 1-.075.255L46.151 5.7v.532l-2.768-2.768-.1.237 2.863 2.861v.53l-3.008-3.011-.094.237 3.106 3.106v.532L42.895 4.7l-.094.236 3.349 3.351v.53l-3.5-3.5-.094.236 1.557 1.557.052-.134v.186l1.986 1.986v.53l-1.986-1.984v.327l1.986 1.986v.532l-1.986-1.985v.331l1.986 1.984v.531l-1.986-1.985v.331l1.986 1.986v.53l-1.986-1.986v.331l1.986 1.984v.532l-1.986-1.986v.329l1.986 1.986v.532L44.165 12v.331l1.986 1.986v.53l-1.986-1.986v.331l1.986 1.986v.53l-1.986-1.984v.327l1.986 1.986v.53l-1.986-1.984v.329l1.986 1.988v.532l-1.986-1.988v.331l1.986 1.986v.532l-1.986-1.986v.329l1.986 1.986v.53l-1.986-1.984v.332l1.986 1.986v.53l-1.986-1.984v.329l1.986 1.984v.534l-1.986-1.988v.331l1.986 1.986v.532l-1.986-1.986v.329l1.986 1.986v.53l-1.986-1.984v.329l1.986 1.986v.53l-1.986-1.986v.329l1.986 1.986v.532l-1.986-1.986v.331l1.986 1.986v.532L44.165 23.2v.329l1.986 1.986v.53l-1.986-1.986v.331l1.986 1.986v.53l-1.986-1.984v.327l1.986 1.986v.537l-1.988-1.991v.329l2.013 2.013a3.948 3.948 0 0 0 .119.647l-2.131-2.127v.331l2.148 2.148c-.123.05-.247.105-.371.159l-1.777-1.777v.329l1.547 1.547c-.121.056-.241.113-.364.169l-1.183-1.183v.334l.961.959c-.119.057-.241.117-.356.176l-.605-.6v.329l.387.385c-.377.2-.751.4-1.118.613a7.391 7.391 0 0 0 .054-.871V8.2l.138.14.094-.236-.232-.234v-.528l.383.383.092-.236-.475-.475v-.323l-.092.234-.988-.99-.094.237.988.988-.151.379-.986-.986-.094.236.988.986-.149.383-.99-.99-.094.239.988.986-.149.383-.988-.988-.094.236.988.988-.149.381-.989-.993-.094.237.99.988-.155.381-.986-.988-.092.236.988.986-.151.383-.988-.988-.094.237.988.988-.149.381-.988-.988-.094.237.988.986-.151.383-.988-.988-.094.236.99.988-.151.381-.988-.988-.094.237.988.988-.151.379-.986-.986-.094.236.986.988-.151.381-.989-.981-.092.236.986.988-.149.381-.988-.988-.094.236.988.99-.151.378-.988-.986-.092.236.988.988-.151.381-.988-.988-.094.236.986.988-.149.381-.986-.986-.094.236.988.988-.151.381-.988-.986-.092.236.986.988-.151.381-9.49-9.492c-.069.042-.14.082-.207.123l9.605 9.605-.149.381-9.783-9.785c-.067.04-.132.084-.2.128l9.894 9.892-.151.379-6.306-6.3.423.754 5.785 5.79-.149.379-4.954-4.954.423.753 4.435 4.435-.149.381-3.6-3.6.425.754 3.083 3.083-.149.381-2.25-2.248.423.751 1.735 1.735-.153.381-.9-.9.423.753.381.381-.069.172-.214.544-.6-1.072-.686-1.215v.006l-.425-.756-.615-1.1-.49-.869-.684-1.216-.426-.759-.684-1.216-.425-.753-.682-1.214.6.6v-.329L28.694 8.59l-.2.128 3.116 3.116v.53l-3.442-3.439c-.067.044-.136.084-.2.128l3.64 3.642v.532l-3.958-3.96c-.067.044-.13.09-.2.136l4.153 4.153v.53l-2.824-2.823a3.311 3.311 0 0 1 .4.735l2.42 2.418v.532l-2.191-2.189c.031.13.05.266.073.4l2.118 2.118v.53L29.56 13.77c.011.119.027.239.033.36l2.007 2.007v.534l-1.991-1.993c0 .054.006.111.006.165v.17L31.607 17v.53l-1.985-1.983v.331l1.986 1.988v.53l-1.986-1.987v.331l1.986 1.988v.53l-1.986-1.986v.328l1.986 1.988v.532l-1.986-1.988v.331l1.986 1.988v.53l-1.986-1.987v.329l1.986 1.99v.529l-1.986-1.989v.331l1.986 1.988v.528l-1.986-1.985v.333l1.986 1.986v.532l-1.986-1.987v.329l1.985 1.992v.532l-1.985-1.992v.329l1.986 1.99v.532L29.622 23.3v.329l1.986 1.988v.532l-1.986-1.987v.331l1.986 1.988v.53l-1.986-1.985v.329l1.986 1.988v.53l-1.986-1.988v.331l1.986 1.99v.529l-1.986-1.986v.329l1.986 1.988v.534l-1.986-1.989v.329l1.986 1.988v.532l-1.986-1.988v.328l1.986 1.988v.53l-1.986-1.986v.329l1.986 1.988v.532l-1.986-1.987v.331l1.986 1.988v.53l-1.986-1.986v.329l1.986 1.988v.53l-1.986-1.987v.329l1.986 1.99v.529l-1.986-1.988v.333l1.985 1.99v.529l-1.985-1.988v.331l1.986 1.988v.53l-1.986-1.99v.331l1.986 1.988v.532l-1.986-1.987v.329l1.986 1.99v.529l-1.986-1.986v.327l1.986 1.988v.532l-1.986-1.986v.331l1.986 1.988v.53l-1.986-1.989v.331l1.986 1.988v.53l-1.986-1.987v.331l1.986 1.986v.534l-1.986-1.987V40l1.986 1.988v.532l-1.986-1.986v.331l1.986 1.986v.532l-1.986-1.989v.331l1.986 1.99v.529l-1.986-1.986v.329l1.986 1.986v.534l-1.986-1.988v.329l1.986 1.99v.529l-1.986-1.988v.331l1.985 1.99v.532l-1.985-1.991v.331l1.986 1.986v.53L29.622 45.7v.329l1.986 1.988v.532l-1.986-1.985v.336l1.986 1.988v.53l-1.986-1.992v.329l1.986 1.991v.529l-1.986-1.986v.327l1.985 1.984v.53l-1.985-1.981v.329l1.991 2c0 .182.008.362.011.544l-2-2.007v.331l2.016 2.018c.011.19.023.379.036.567l-2.054-2.058v.327l2.08 2.08c.015.2.04.4.061.6l-2.141-2.144v.327l2.183 2.185c.027.209.059.416.092.622l-2.275-2.27v.329l2.334 2.336c.038.22.084.439.128.661l-2.462-2.47v.331l2.541 2.545c.054.236.115.469.174.7l-2.746-2.746c-.01.1-.013.2-.029.3l2.888 2.886c.067.251.142.5.216.749"/><path data-name="Path 30772" d="M23.001 51.171l-19.277.149 19.124.151v.626c0 .079 0 .17-.006.253a3.818 3.818 0 0 1-.059.488c-.021.077-.038.163-.063.239a2.167 2.167 0 0 1-.08.23 1.92 1.92 0 0 1-.1.222c-.038.069-.082.14-.124.209s-.094.13-.146.191a1.789 1.789 0 0 1-.17.17 2.028 2.028 0 0 1-.387.287 2.272 2.272 0 0 1-.216.107 1.85 1.85 0 0 1-.2.065q-.913-.169-1.834-.276a24.92 24.92 0 0 0-3.786-.144c-.628.023-1.264.075-1.892.147s-1.252.163-1.873.281-1.237.255-1.85.41-1.216.349-1.811.555a17.061 17.061 0 0 0-1.75.733 8.1 8.1 0 0 0-.835.463 4.144 4.144 0 0 0-.743.624 3.123 3.123 0 0 0-.54.808 2.425 2.425 0 0 0-.2.959 2.352 2.352 0 0 0 .061.49 2.573 2.573 0 0 0 .169.463 2.445 2.445 0 0 0 .615.76 2.857 2.857 0 0 0 .844.484 4.45 4.45 0 0 0 .942.216 3.778 3.778 0 0 0 1.905-.257 2.957 2.957 0 0 0 .829-.519 2.078 2.078 0 0 0 .567-.81 1.588 1.588 0 0 0 .034-1 1.761 1.761 0 0 0-.218-.452 1.313 1.313 0 0 0-.349-.364 1.693 1.693 0 0 0-.934-.283 1.941 1.941 0 0 0-.925.216 2.058 2.058 0 0 1 .917-.119 1.637 1.637 0 0 1 .839.326 1.15 1.15 0 0 1 .281.333 1.584 1.584 0 0 1 .165.41 1.3 1.3 0 0 1-.067.837 2.181 2.181 0 0 1-1.275 1.1 3.589 3.589 0 0 1-1.723.17 5.249 5.249 0 0 1-.643-.14c-.08-.023-.134-.048-.2-.069a2.4 2.4 0 0 1-.718-.416 1.843 1.843 0 0 1-.687-1.386 1.98 1.98 0 0 1 .167-.77 2.562 2.562 0 0 1 .46-.691 3.509 3.509 0 0 1 .659-.551 7.837 7.837 0 0 1 .789-.442 16.886 16.886 0 0 1 1.708-.71c.582-.2 1.178-.385 1.777-.548s1.2-.3 1.817-.417 1.224-.214 1.842-.291 1.239-.13 1.854-.159c.63-.023 1.249-.044 1.873-.027a25.273 25.273 0 0 1 3.724.366h.033l.027-.008a1.741 1.741 0 0 0 .272-.09 2.116 2.116 0 0 0 .247-.123 2.257 2.257 0 0 0 .444-.324 2.087 2.087 0 0 0 .191-.2 2.417 2.417 0 0 0 .169-.222 2.613 2.613 0 0 0 .142-.234c.04-.08.08-.165.115-.251s.063-.169.088-.257.048-.174.067-.262a4.188 4.188 0 0 0 .069-.536c0-.1 0-.172.006-.266v-.928z"/><path data-name="Path 30773" d="M5.264 39.94c.475.159.946.327 1.43.452l.72.209.362.1c.121.033.241.059.362.086l1.463.341c.488.1.979.188 1.471.278l.735.136.743.107 1.484.207c.5.067.994.1 1.488.155.387.038.768.077 1.151.111l-12.2.1L23 42.378v-.3l-.8-.019c-.253-.008-.563-.013-.915-.023l-.563-.013c-.2 0-.4-.029-.622-.042l-1.4-.111c-.124-.01-.253-.013-.379-.029l-.383-.052-.793-.107c-.27-.036-.544-.065-.82-.113s-.551-.1-.831-.161-.563-.107-.846-.163l-.843-.211c-.278-.077-.561-.14-.839-.22s-.548-.176-.818-.264c-.548-.163-1.061-.391-1.566-.584-.063-.027-.126-.052-.19-.077s-.121-.059-.18-.086c-.119-.059-.239-.113-.358-.17-.232-.117-.471-.209-.686-.337s-.429-.237-.632-.354-.391-.243-.574-.36l-.272-.169c-.092-.056-.165-.121-.243-.18-.159-.119-.316-.222-.452-.335s-.264-.216-.381-.318-.216-.2-.308-.281-.174-.169-.241-.239-.126-.13-.17-.184c-.088-.1-.134-.159-.134-.159s.04.059.124.167a1.888 1.888 0 0 0 .159.2 3.4 3.4 0 0 0 .226.255c.088.092.186.2.295.3s.237.214.37.331.287.232.442.356c.08.065.159.124.243.191s.172.123.262.182c.186.123.368.259.573.379s.414.243.632.368a1.745 1.745 0 0 0 .163.1c.057.033.115.057.172.088.113.054.232.113.35.172l.358.176c.059.031.123.059.184.09s.123.054.186.08c.509.2 1.026.442 1.576.611.272.092.548.188.823.28s.561.153.844.232.565.151.844.226c.285.057.569.119.852.174.2.042.4.08.605.123-.167-.015-.335-.031-.5-.044-.494-.048-.994-.08-1.486-.14l-1.48-.2-.737-.094-.737-.13c-.488-.092-.979-.17-1.467-.266l-1.455-.326c-.121-.029-.243-.054-.362-.082l-.358-.1-.722-.2c-.479-.123-.95-.283-1.423-.439s-.938-.333-1.4-.509l-.347-.136-.341-.149-.68-.3c-.444-.224-.892-.442-1.317-.691-.113-.061-.216-.128-.322-.193l-.318-.2-.3-.213c-.1-.077-.2-.149-.295-.23a7.2 7.2 0 0 0 1.187.91c.216.13.423.272.645.389l.659.352.678.32.341.157.35.142c.463.182.927.373 1.4.523"/><path data-name="Path 30774" d="M42.362 40.423c-.036-.113-.071-.226-.109-.339a17.249 17.249 0 0 0-.944 20.933c.077-.065.151-.13.226-.2a16.958 16.958 0 0 1 .827-20.4"/><path data-name="Path 30775" d="M26.94 9.752l.668.668a2.04 2.04 0 0 1 .624.295l-1.1-1.1c-.065.046-.13.09-.2.134"/><path data-name="Path 30776" d="M48.308 63.411a8.717 8.717 0 0 1-1.531-3.474l-.55 1.18a9.669 9.669 0 0 0 1.415 2.782z"/><path data-name="Path 30777" d="M106.209 39.76V29.28a13.621 13.621 0 0 1-1.354-5.245 155.613 155.613 0 0 1-5.073-2.085 7.67 7.67 0 0 1-1.355 4.137v10.489a14.111 14.111 0 0 1 1.354 5.323q2.559 1.1 5.073 2.085a8.022 8.022 0 0 1 1.354-4.224m-2.181-15.12c.021.214.052.481.1.791l-1.252-1.252 1.152.461m-2.735 16.959l-.676-.289c-.01-.121-.027-.268-.046-.423-.008-.059-.017-.128-.027-.191a15.477 15.477 0 0 0-.299-1.538 12.641 12.641 0 0 0-.132-.507 19.452 19.452 0 0 0-.232-.754 18.851 18.851 0 0 0-.496-1.296c-.031-.073-.056-.142-.088-.214V26.37a7.212 7.212 0 0 0 .8-1.584c.025-.067.046-.134.069-.2a8.74 8.74 0 0 0 .169-.553l.05-.188a8.7 8.7 0 0 0 .134-.641c.109.048.213.09.318.134l.354.149c-.01.052-.025.115-.036.169l.827.825a1.219 1.219 0 0 0-.408.126l-.513-.513q-.032.126-.069.259l.383.383a1.007 1.007 0 0 0-.128.111 1.337 1.337 0 0 0-.134.159l-.243-.243c-.029.086-.048.165-.079.253l.191.191a2.443 2.443 0 0 0-.159.37l-.19-.188a3.913 3.913 0 0 1-.1.234l.211.209a3.984 3.984 0 0 0-.088.446l-.3-.3c-.036.071-.08.138-.121.209l.385.385a5.57 5.57 0 0 0-.021.486v.029l-.559-.559c-.027.04-.046.084-.073.126v.128l.632.634v.53l-.632-.634v.331l.632.636v.529l-.632-.634v.331l.632.634v.532l-.632-.634v.329l.632.634v.53l-.632-.634v.331l.632.634v.53l-.632-.634v.33l.632.636v.532l-.632-.636v.329l.632.634v.532l-.632-.636v.331l.632.634v.53l-.632-.634v.329l.632.634v.532l-.632-.632v.327l.632.634v.53l-.632-.634v.331l.632.636v.53l-.632-.634v.329l.632.634v.532l-.55-.55c.08.188.159.375.23.559l.32.32v.467a.383.383 0 0 0 0 .065l-.029-.027.029.079c0 .082.006.182.011.289a5.629 5.629 0 0 0 .061.584 5.551 5.551 0 0 0 .195.826l.006.015a3.531 3.531 0 0 0 .146.354 2.312 2.312 0 0 0 .142.262c.015.1.025.184.038.276l1.074 1.07c-.32-.132-.663-.278-.994-.417m1.026-16.223c.85.349.846 2.378.846 2.378v11.172s0 2.03-.846 1.687-.844-2.382-.844-2.382V27.059s0-2.03.844-1.683m2.3 15.526q-.078.2-.144.391l-.178-.18a1.619 1.619 0 0 1-.14.19l.239.239c-.044.144-.082.28-.117.417l-.394-.4a1.165 1.165 0 0 1-.214.117l.546.548c-.034.153-.065.3-.092.44l-.885-.885c-.019 0-.036.006-.056.006a1.281 1.281 0 0 1-.306-.04l.866.866q-.439-.175-.9-.364l-.841-.844a1.308 1.308 0 0 0 .5.1 1.2 1.2 0 0 0 .45-.094 1.125 1.125 0 0 0 .262-.142 1.3 1.3 0 0 0 .218-.2 1.515 1.515 0 0 0 .2-.281 2.245 2.245 0 0 0 .132-.281c.029-.071.052-.146.075-.222a3.721 3.721 0 0 0 .132-.605c.01-.077.023-.149.031-.23.015-.172.025-.35.025-.542V27.754a7.057 7.057 0 0 0-.059-.873c-.006-.031-.006-.057-.011-.088-.011-.08-.031-.167-.046-.251a4.347 4.347 0 0 0-.167-.638c-.019-.052-.042-.1-.061-.149a2.825 2.825 0 0 0-.126-.285c-.015-.031-.036-.057-.054-.086a2.407 2.407 0 0 0-.2-.3c-.019-.023-.042-.04-.061-.063a1.858 1.858 0 0 0-.258-.247 1.565 1.565 0 0 0-.343-.2 1.523 1.523 0 0 0-.331-.09l-.91-.908.906.373.867.867a1.36 1.36 0 0 1 .146.038 1.749 1.749 0 0 1 .823.735c.017.105.04.22.061.331.025.132.056.27.086.412.052.239.113.49.188.754.025.088.05.178.077.268s.061.209.1.314c.05.157.1.312.155.473l-.069-.038.084.084q.149.422.335.864l-.452-.452v.331l.634.634v.532l-.634-.634v.327l.634.634v.532l-.634-.632v.327l.634.634v.53l-.634-.632v.329l.634.632v.532l-.634-.632v.331l.634.634v.53l-.634-.634v.329l.634.634v.53l-.634-.632v.329l.634.634v.53l-.634-.632v.329l.634.634v.53l-.634-.632v.329l.634.634v.537l-.634-.632v.332l.634.634v.532l-.634-.634v.329l.634.632v.532l-.634-.634v.331l.634.634v.448l-.033.052-.6-.6v.326l.479.479c-.067.115-.132.228-.193.339l-.308-.31c-.01.1-.029.193-.044.289l.239.241a7.394 7.394 0 0 0-.165.364l-.17-.17c-.023.086-.046.174-.075.253z"/><path data-name="Path 30778" d="M123.796 40.008l-1.35-2.706 1.2-8.119a2.127 2.127 0 0 1 .49-1.021c-.327 0-.664.008-1.015.008-.915 0-1.831-.042-2.754-.119a1.521 1.521 0 0 1 .218 1.028l-1.185 8.008 1.354 2.834v7.1a1.654 1.654 0 0 1-.339.99q1.359.112 2.706.113c.35 0 .687 0 1.015-.006a1.74 1.74 0 0 1-.339-1.009zm-1.3 7.244l-.2-.2v.2l-.14-.006a52.16 52.16 0 0 0-.548-.021c.006-.065.006-.134.006-.2v-7.3l-.22-.461-.488-1.019-.615-1.289.023-.165.042-.287.069-.461.077-.53.033-.22.044-.287.046-.3.065-.452.069-.463.042-.285.044-.291.092-.628.044-.3.042-.287.067-.461.069-.463.042-.289.042-.289.008-.056.124-.846.046-.31.025-.084c.011-.073.015-.144.021-.211h.023c.44.021.875.034 1.308.042l-.056.364-.107-.105-.345-.013.408.408c-.019.136-.044.293-.067.461l-.529-.527-.042.289.527.527-.069.461-.527-.527-.042.287.529.527-.071.465-.527-.527-.042.287.527.525c-.021.151-.046.306-.069.463l-.527-.525-.042.287.528.525c-.025.153-.048.31-.069.461l-.527-.527-.042.291.523.527-.065.461-.527-.527-.042.287.525.527c-.023.155-.044.31-.069.465l-.525-.527-.042.287.523.525c-.021.159-.044.314-.065.463l-.527-.525-.042.285.527.527c-.027.163-.048.316-.071.461l-.525-.525-.042.289.525.527c-.025.17-.05.327-.069.461l-.525-.527-.042.289.525.525-.036.253.243.483-.8-.8-.015.1.193.406.952.952.53 1.063-1-1 .3.632.977.977v.53l-.634-.632v.329l.634.634v.53l-.634-.634v.331l.634.634v.53l-.634-.634v.331l.634.632v.532l-.634-.634v.331l.634.634v.53l-.634-.632v.329l.634.634v.53l-.634-.634v.35l.634.632v.53l-.634-.632v.331l.634.634v.53l-.634-.634v.329l.636.636v.1c-.146 0-.293-.006-.439-.008"/><path data-name="Path 30779" d="M106.885 44.746q1.87.684 3.723 1.254a2.645 2.645 0 0 1-.339-1.118V30.346s0-2.028.844-1.773.846 2.273.846 2.273v2.03l-1.352 2.306 1.352 3.1v7.106a1.388 1.388 0 0 1-.341.917q1.876.54 3.723.94a2.358 2.358 0 0 1-.337-1.088v-7.1l-1.354-3.035 1.354-2.376v-6.428a64.8 64.8 0 0 1-8.119-2.424 3.148 3.148 0 0 1 .339 1.139v17.926a1.407 1.407 0 0 1-.339.89m1.206-.89V26.138c1.026.352 2.014.666 2.976.95l.283.084q1.433.414 2.786.735v.645l-.693-.691c-.149-.04-.3-.077-.45-.119l1.144 1.144v.53l-1.882-1.882c-.153-.044-.306-.086-.461-.132l2.343 2.344v.53l-.879-.881a4.023 4.023 0 0 1 .124.458l.754.753v.532l-.663-.663c.011.113.019.23.023.352l.64.64v.53l-.63-.63v.331l.63.63v.532l-.63-.63v.329l.63.63v.224l-.111.2-.519-.519v.3l-.011.021.41.412-.191.339-.416-.416-.123.209.416.416-.19.339-.423-.421-.123.209.423.425-.193.335-.425-.427-.123.211.429.429-.191.337-.435-.433-.086.146.078.176.406.406.427.959-.423-.423.257.586.433.435.425.956-.446-.448.1.222v.207l.615.617.015.031v.511l-.63-.628v.331l.63.63v.532l-.63-.632v.329l.63.632v.53l-.634-.638v.329l.63.63v.53l-.63-.63v.331l.63.63v.532l-.63-.63v.329l.63.63v.532l-.63-.63v.327l.63.632v.532l-.63-.632v.333l.63.628v.532l-.63-.632v.331l.584.586c-.234-.057-.475-.123-.714-.186-.147-.036-.3-.075-.446-.115l-.13-.036a2.48 2.48 0 0 0 .025-.347v-7.278l-.4-.927-.408-.94-.255-.58-.178-.414.232-.4.04-.065.28-.479.067-.115.3-.517.142-.245.121-.207.061-.1v-2.269c0-.109-.008-.2-.013-.3-.006-.138-.011-.276-.023-.4a5.08 5.08 0 0 0-.056-.4c-.015-.084-.034-.159-.052-.237-.015-.063-.029-.128-.046-.188s-.042-.138-.067-.2a2.333 2.333 0 0 0-.762-1.132l.034.006-.808-.808-.481-.149.691.689a1.33 1.33 0 0 0-.272-.031 1.471 1.471 0 0 0-.264.027l-.94-.938a47.666 47.666 0 0 1-.494-.165l1.181 1.181a1.225 1.225 0 0 0-.32.213l-1.369-1.382v.329l1.206 1.206a1.987 1.987 0 0 0-.211.322l-1-1v.327l.894.894a3.026 3.026 0 0 0-.126.4l-.768-.766v.329l.71.71c-.025.149-.046.31-.057.475l-.653-.653v.341l.638.64v.527l-.634-.634v.331l.634.634v.532l-.634-.636v.331l.634.636v.53l-.634-.636v.329l.634.636v.532l-.634-.636v.329l.634.636v.53l-.634-.634v.329l.634.636v.532l-.633-.634v.329l.634.636v.532l-.634-.637v.329l.634.634v.537l-.634-.636v.331l.634.634v.532l-.634-.636v.333l.634.634v.53l-.634-.634v.329l.634.636v.529l-.634-.634v.331l.634.634v.532l-.634-.635v.329l.634.636v.53l-.634-.634v.329l.634.632v.534l-.634-.634v.329l.634.636v.529l-.634-.634v.331l.634.634v.532l-.634-.636v.331l.634.634v.532l-.634-.636v.326l.458.46c-.159-.052-.32-.109-.481-.167-.228-.077-.454-.151-.686-.234a2.1 2.1 0 0 0 .036-.391"/><path data-name="Path 30780" d="M135.321 16.481c-2.03-2.03-5.4-1.2-5.4-1.2a4.591 4.591 0 0 1 2.418 1.155c2.229 2 1.677 7.679-9.22 7.679-9.327 0-18.938-4.213-29.1-8.768a3.47 3.47 0 0 1 .509 1.926l-2.566 13.045-1.99-13.109-3.542 10.665-1.38-14.794a1.932 1.932 0 0 1 .527-1.467 161.13 161.13 0 0 0-5.074-2.064 4.681 4.681 0 0 1 .71 1.965l2.17 23.2a1.448 1.448 0 0 1-.638 1.43c1.651.668 3.286 1.363 4.9 2.068 0 0-.862-1.1-.574-1.94l2.275-7 1.354 8.592a1.3 1.3 0 0 1-.647 1.4q2.476 1.1 4.9 2.194a2.866 2.866 0 0 1-.619-1.969l4.1-20.842c8.549 3.741 16.728 6.815 24.688 6.815 12.514 0 14.907-6.275 12.2-8.981M84.33 12.027a2.688 2.688 0 0 0-.105.4l-.756-.756.862.358M87.1 33.395l-2.558-2.556.034.364 2.441 2.438-.132.4-2.253-2.254.034.368 2.137 2.139-.128.4-1.955-1.955.034.364 1.838 1.84-.13.4-1.654-1.654.034.364 1.54 1.54-.13.4-1.353-1.351.027.28v.075l1.262 1.26a1.843 1.843 0 0 0-.038.368 7.587 7.587 0 0 1-.22-.1l-1.018-1.01a2.2 2.2 0 0 1-.061.268l.5.5c-.262-.113-.517-.218-.772-.324-.161-.067-.322-.136-.479-.2a2.693 2.693 0 0 0 .082-.326 2.375 2.375 0 0 0 .048-.243 2.648 2.648 0 0 0 .013-.555l-.034-.356-.033-.366-.054-.586-.14-1.5-.04-.4-.08-.865-.006-.079-.042-.431-.048-.521-.073-.783-.017-.167-.033-.366-.056-.586-.255-2.729-.011-.123-.088-.931v-.021l-.061-.676-.027-.274-.123-1.313-.054-.586-.124-1.314-.01-.092-.454-4.848-.036-.4-.27-2.89a5.112 5.112 0 0 0-.044-.341v-.01c.226.09.456.188.687.28l.191.079 1.281 1.279a2.313 2.313 0 0 0 0 .446l.008.094-1.435-1.431.034.364 1.432 1.432.054.586-1.43-1.432.034.366 1.43 1.429.054.588-1.427-1.434.033.366 1.43 1.43.056.586-1.43-1.43.034.366 1.43 1.43.054.584-1.43-1.429.034.364 1.429 1.43.057.586-1.43-1.43.033.364 1.43 1.43.054.588-1.428-1.432.034.364 1.43 1.43.054.586-1.43-1.43.034.366 1.43 1.429.054.586-1.429-1.429.034.364 1.428 1.43.056.586-1.432-1.429.034.364 1.43 1.429.054.586-1.429-1.429.034.364 1.429 1.429.056.588-1.43-1.429.034.362 1.429 1.43.056.586-1.429-1.43.034.366 1.428 1.428.054.586-1.429-1.429.034.364 1.429 1.429.056.588-1.429-1.43.033.364 1.43 1.429.054.586-1.429-1.429.034.364 1.43 1.432.052.584-1.427-1.429.033.364 1.429 1.43.056.584-1.429-1.428.034.366 1.429 1.429.054.586-1.428-1.43.034.364 1.428 1.427.054.588-1.427-1.428.034.366 1.429 1.429.034.381.088-.26 1.189 1.191zm6.738 4.155l-1.957-1.955.048.375 1.856 1.857-.088.442-1.687-1.689.063.394 1.57 1.57-.086.446-1.384-1.386.063.394 1.264 1.264-.011.057a2.4 2.4 0 0 0-.046.417l-1.181-1.182a2.459 2.459 0 0 1-.033.3l.8.8-.961-.433c-.207-.094-.414-.184-.62-.278v-.011a2.3 2.3 0 0 0 .077-.253 2.141 2.141 0 0 0 .059-.471 2.589 2.589 0 0 0-.011-.341c-.006-.038 0-.075-.01-.117l-.08-.5-.061-.394-.1-.63-.073-.463-.052-.331-.036-.23-.061-.389-.1-.63-.079-.5-.084-.527-.061-.391-.1-.632-.061-.391-.1-.632-.063-.394-.1-.63-.061-.393-.069-.448-.144-.91-.109-.687-.019-.123-.057-.354-.184-1.174.425.427.08-.249-.567-.571-.008-.029v.017l-.573-.573-.084.249.574.574-.13.4-.576-.576-.082.249.578.576-.132.4-.578-.578-.084.249.58.582-.13.4-.582-.582-.082.247.584.582-.13.4-.586-.586-.082.249.586.586-.13.4-.588-.588-.084.247.592.592-.13.4-.594-.592-.082.247.594.6-.13.4-.6-.6-.082.247.6.6-.13.4-.6-.6-.082.249.6.6-.13.4-.6-.6-.08.245.6.605-.132.4-.605-.605-.082.247.609.609-.13.4-.611-.611-.069.211-.029-.308-.481-.483.13-.4.295.295-.034-.364-.176-.178.123-.373.134-.4.086-.262.3-.9.132-.4.082-.247.132-.4.1-.3.113-.345.4-1.21.029-.084.726-2.187.057-.169.469-1.413.036-.109.4-1.195.243 1.6-.059.178.1.1.1.626-.329-.329-.082.249.471.469.1.628-.7-.7-.082.245.841.841.094.628-1.067-1.067-.084.247 1.151 1.149.034-.105.025.165.015.105.293 1.924.036.234.425 2.811.079.529.075.486.1.626.283 1.871.025.161.059.389.059.391.054-.278 2.018 2.018zm3.684-18.718l-1.437-1.44a2.282 2.282 0 0 1-.025.306l1.402 1.406-.088.444-1.4-1.4-.054.276 1.4 1.406-.086.442-1.406-1.4-.054.274 1.406 1.406-.088.444-1.406-1.406-.054.276 1.406 1.4-.086.444-1.407-1.4-.054.276 1.406 1.4-.088.444-1.406-1.4-.054.276 1.4 1.406-.086.442-1.406-1.4-.054.276 1.406 1.4-.088.446-1.397-1.414-.054.276 1.406 1.4-.088.444-1.406-1.4-.054.276 1.406 1.4-.088.444-1.4-1.4-.056.276 1.4 1.406-.086.444-1.4-1.406-.056.276 1.406 1.4-.088.444-1.4-1.4-.054.276 1.4 1.406-.088.444-1.4-1.406-.054.276 1.4 1.406-.086.444-1.4-1.406-.054.276 1.4 1.4-.086.444-1.406-1.4-.056.276 1.406 1.406-.088.442-1.4-1.4-.054.276 1.406 1.406-.088.444-1.406-1.406-.054.276 1.4 1.4-.088.446-1.4-1.406-.054.276 1.4 1.406-.084.442-1.406-1.4-.056.278 1.406 1.4-.086.442L93.43 31.1l-.054.278 1.4 1.4-.084.444-1.406-1.406-.054.278 1.4 1.4-.086.444-1.406-1.4-.054.276 1.4 1.4-.088.444-1.4-1.4-.054.276 1.4 1.4-.086.444-1.396-1.395-.054.276 1.4 1.406-.086.446-1.4-1.406-.056.276 1.406 1.406-.088.444-1.406-1.406-.042.222-.048-.314-.523-.523.088-.444.339.339-.059-.389-.228-.228.109-.55.666-3.391.019-.1.337-1.718.059-.3.224-1.137.05-.255.092-.467.017-.086.55-2.792.088-.444.2-1 .088-.444.121-.622.019-.1.092-.469.05-.249.056-.278.086-.442.2-.994.065-.326.1-.49a2.374 2.374 0 0 0 .044-.521c.111.052.224.1.337.149.316.144.636.281.954.423l.9.9zm.14-.72l-.358-.36.4.178zm37.694 1.505l-.425-.425c0 .1-.008.209-.015.314l.364.364c-.021.056-.042.113-.067.167a2.74 2.74 0 0 1-.09.209l-.274-.274c-.019.09-.036.182-.059.272l.216.216a3.31 3.31 0 0 1-.209.324l-.134-.134-.013.044c-.023.061-.054.126-.08.19l.092.092a5.626 5.626 0 0 1-.676.72l-.006-.008c-.059.054-.111.107-.172.159a9.519 9.519 0 0 1-.295.236l-.008-.008c-.063.048-.123.1-.19.144-.017.013-.038.025-.057.038l-.088.061-.17.115-.006-.008-.2.128c-.056.034-.115.065-.17.1l-.126.071-.036.028c-.071.04-.147.075-.22.113v.006c-.115.057-.234.117-.356.174l-.084.042c-.134.059-.27.119-.41.174a6.42 6.42 0 0 0 .507-.326l.084-.061c.138-.1.266-.2.387-.3.029-.025.056-.05.084-.073.117-.1.226-.2.327-.3l.09-.1a5.337 5.337 0 0 0 .728-.946c.046-.079.09-.157.13-.234.027-.05.056-.1.079-.149.059-.124.115-.245.157-.36a4.624 4.624 0 0 0 .146-.463l.04-.169c.033-.151.061-.3.078-.452v-.1a4.309 4.309 0 0 0-.011-.846 4.565 4.565 0 0 0-.067-.408 4.286 4.286 0 0 0-.193-.655 4.648 4.648 0 0 0-.176-.389c-.029-.054-.052-.109-.082-.161a3.8 3.8 0 0 0-.333-.5.449.449 0 0 1 .046.017 3.787 3.787 0 0 1 .63.3l-.008-.01.031.021.025.013v.006a3.3 3.3 0 0 1 .609.473 2.509 2.509 0 0 1 .446.6l-1.017-1.019a4.056 4.056 0 0 1 .44.772l.791.791a2.5 2.5 0 0 1 .079.613l-.62-.622c.029.132.056.264.073.4l.534.534a3.105 3.105 0 0 1-.08.452"/><path data-name="Path 30781" d="M124.812 34.577c0 1.371 4.734 3.751 4.734 5.117v3.713s-.017 2.037-.844 2.124-.844-1.965-.844-1.965a2.038 2.038 0 0 1 .337-1.034c-.969.079-2.089.136-3.382.165v5.413a34.307 34.307 0 0 0 7.78-.841V39.15c0-1.36-4.735-3.328-4.735-4.714v-2.03s0-2.013.844-2.1.844 1.94.844 1.94a1.843 1.843 0 0 1-.337 1.053 22.62 22.62 0 0 0 3.384-.58v-5.41a34.346 34.346 0 0 1-7.78.839zm3.52 12.485l-1.978-1.98v.329l1.678 1.674-.5.038-1.178-1.18v.329l.869.869c-.165.011-.331.019-.5.029l-.366-.368v.331l.052.054-.282.011c-.147.006-.295.011-.45.019v-3.68c.45-.015.888-.033 1.314-.057v.086c0 .157.01.3.021.446l-.207-.209-.32.013.565.563a4.113 4.113 0 0 0 .144.676l-.835-.837v.332l1.072 1.07a1.539 1.539 0 0 0 .64.641l.754.753-.488.046m-2.659-13.526v-4.54c.32-.01.626-.023.925-.038.124 0 .247-.011.368-.019l.448-.025.318-.021c.228-.017.448-.033.661-.052l.2-.017c.151-.013.3-.027.44-.042l.45-.048c.15-.017.3-.033.437-.05.054-.006.107-.013.161-.021.161-.019.318-.042.469-.063l.461-.071.282-.048.435-.079v.511l-.1-.094-.287.044.383.383v.53l-.848-.848-.293.038 1.141 1.139v.532l-1.618-1.616-.3.031 1.917 1.915v.532l-1.206-1.208a2.3 2.3 0 0 1 .345.678l.862.86v.216c-.086.017-.172.036-.262.056l-.431-.431c.017.115.027.239.036.364l.117.119c-.033.006-.069.011-.1.019l-.161.025-.19.034c-.094.013-.186.031-.283.044h-.036v-.023a6.268 6.268 0 0 0-.046-.71c-.006-.059-.01-.121-.017-.176a3.924 3.924 0 0 0-.14-.619 1.032 1.032 0 0 0-.027-.084 2.63 2.63 0 0 0-.222-.484l-.04-.065a1.645 1.645 0 0 0-.3-.349 1.282 1.282 0 0 0-.8-.318l-.287-.285c-.1.008-.2.015-.306.021l.287.287a1.492 1.492 0 0 0-.4.13l-.385-.387-.312.017.494.5a1.58 1.58 0 0 0-.264.266l-.737-.737-.318.011.917.919a2.423 2.423 0 0 0-.182.35l-.959-.961v.329l.869.871a3.661 3.661 0 0 0-.111.419l-.758-.76v.331l.7.7a6.378 6.378 0 0 0-.054.481l-.651-.653v.329l.636.636v.53l-.632-.634v.329l.632.634v.532l-.632-.634v.334l.632.634v.456c0 .027.006.054.008.082l-.64-.64v.329l.714.714c.3.925 1.409 1.712 2.669 2.6a8.616 8.616 0 0 1 1.986 1.662v.923l-.787-.785a1.641 1.641 0 0 1 .126.454l.661.659v.532l-.634-.632v.329l.634.632v.53l-.634-.63v.331l.634.632v.53l-.634-.632v.329l.634.634v.532l-.634-.634v.329l.634.632v.532l-.636-.636c0 .088-.008.193-.015.314l.651.651v.53l-.7-.7c-.015.09-.029.184-.05.28l.754.753v.532l-.864-.862a6.337 6.337 0 0 1-.086.243l.95.948v.115c-.111.023-.228.046-.349.067l-.774-.772a2 2 0 0 1-.132.2l.626.628c-.144.025-.293.052-.454.077l-.429-.431a1.253 1.253 0 0 1-.193.136l.337.339c-.147.021-.306.044-.465.065l-.255-.255a1.192 1.192 0 0 1-.169.033c-.042 0-.082.006-.123.008l.251.251-.477.054-.565-.567a.446.446 0 0 1-.052-.029h.023c.042 0 .082.011.124.011s.094-.008.14-.008a1.3 1.3 0 0 0 .222-.048 1.377 1.377 0 0 0 .245-.09 1.357 1.357 0 0 0 .312-.216 1.545 1.545 0 0 0 .163-.172 1.7 1.7 0 0 0 .2-.287 2.191 2.191 0 0 0 .134-.268 3.652 3.652 0 0 0 .13-.368 4.36 4.36 0 0 0 .15-.687 7.143 7.143 0 0 0 .057-.592v-.011c0-.067.006-.124.006-.178v-3.778a1.569 1.569 0 0 0-.046-.339 1.842 1.842 0 0 0-.056-.184 2.78 2.78 0 0 0-.471-.8 6.002 6.002 0 0 0-.469-.51 10.92 10.92 0 0 0-.343-.322l-.19-.165c-.1-.09-.211-.18-.32-.27l-.264-.216-.532-.425a9.441 9.441 0 0 1-2.061-1.913z"/><path data-name="Path 30782" d="M130.183 29.951l-.856-.856-.3.025.624.624a1.291 1.291 0 0 1 .536.207"/><path data-name="Path 30783" d="M115.676 47.319a41.13 41.13 0 0 0 3.724.594 2.056 2.056 0 0 1-.339-1.049V28.936a1.728 1.728 0 0 1 .339-.979 38.996 38.996 0 0 1-3.721-.6 2.481 2.481 0 0 1 .337 1.086v17.93a1.532 1.532 0 0 1-.341.946m1.208-.946v-17.9c.444.075.887.142 1.327.207a1.785 1.785 0 0 0-.015.255v.232l-.371-.37c-.086-.015-.174-.031-.262-.044v.111l.634.632v.532l-.634-.634v.329l.634.634v.53l-.634-.634v.331l.634.634v.53l-.634-.634v.331l.634.634v.532l-.634-.636v.329l.634.636v.53l-.634-.634v.337l.634.634v.534l-.634-.634v.327l.634.634v.532l-.634-.634v.331l.634.634v.53l-.634-.634v.329l.634.634v.534l-.634-.636v.329l.634.634v.532l-.634-.634v.331l.634.634v.53l-.634-.634v.329l.634.636v.532l-.629-.634v.327l.634.636v.537l-.634-.636v.329l.634.634v.532l-.634-.634v.329l.634.634v.532l-.634-.634v.329l.634.636v.53l-.634-.634v.329l.634.634v.532l-.634-.636v.331l.634.634v.534l-.634-.635v.33l.634.634v.534l-.634-.636v.331l.634.634v.534l-.634-.636v.329l.634.632v.157c-.147-.021-.3-.046-.444-.069l-.19-.19v.031c0 .044-.006.086-.008.13l-.689-.121a2.353 2.353 0 0 0 .019-.293"/><path data-name="Path 30784" d="M68.687 40.084c-.036.111-.071.224-.109.337a16.958 16.958 0 0 1 .829 20.4l.226.2a17.245 17.245 0 0 0-.946-20.933"/><path data-name="Path 30785" d="M77.911 61.656a1.356 1.356 0 0 0-.663 2.537 25.505 25.505 0 0 1-7.372 7.863 51.5 51.5 0 0 1 29.24-9.048H79.268a1.355 1.355 0 0 0-1.357-1.352m-4.408 7.78a25.736 25.736 0 0 0 4-5.092l.159-.26-.27-.155a1.054 1.054 0 1 1 1.57-.919v.3h11.38a47.4 47.4 0 0 0-16.843 6.124"/><path data-name="Path 30786" d="M55.47 31.664a19.5 19.5 0 1 0 19.507 19.5 19.527 19.527 0 0 0-19.507-19.5m14.163 29.355v.006a7.15 7.15 0 0 1-.226-.193v-.008a21.509 21.509 0 0 1-3.02-3.238v.587l.031.76a22.319 22.319 0 0 0 3.06 3.045l-.09.121a22.7 22.7 0 0 1-2.962-2.92l.048 1.3a23.732 23.732 0 0 0 2.388 2.256 17.68 17.68 0 0 1-26.778 0 23.487 23.487 0 0 0 2.384-2.256l.05-1.3a22.7 22.7 0 0 1-2.962 2.92c-.031-.042-.061-.079-.09-.121a22.51 22.51 0 0 0 3.06-3.041l.031-.764v-.587a21.509 21.509 0 0 1-3.022 3.236l.006.01c-.075.067-.151.13-.226.193l-.006-.006c-.113.1-.22.2-.337.293a17.667 17.667 0 0 1 1.122-21.722c.057.163.105.331.161.5v-.008l.115.331-.011.013a55.037 55.037 0 0 1 2.736 17.175v.582l-.04 3.966 1.75-3.556a55.3 55.3 0 0 1 5.7-9.176c-.117-.291-.245-.58-.375-.867a55.947 55.947 0 0 0-6.063 9.676l-.147.3.006-.329v-.592a55.9 55.9 0 0 0-3.2-18.7 6.62 6.62 0 0 0 .117-.119 56.033 56.033 0 0 1 3.23 18.821v.268a56.31 56.31 0 0 1 5.98-9.473 19.49 19.49 0 0 0-.406-.82 57.041 57.041 0 0 0-4.82 7.129 56.659 56.659 0 0 0-3.332-16.556 17.663 17.663 0 0 1 23.948 0 56.661 56.661 0 0 0-3.334 16.556 57.235 57.235 0 0 0-4.818-7.129c-.142.272-.28.544-.408.82a56.443 56.443 0 0 1 5.982 9.469v-.264a56.033 56.033 0 0 1 3.23-18.821c.038.04.079.08.119.119a55.854 55.854 0 0 0-3.2 18.7v.921l-.146-.3a56.073 56.073 0 0 0-6.064-9.676q-.2.431-.375.867a55.256 55.256 0 0 1 5.7 9.176l1.75 3.556-.04-3.966v-.582a55.1 55.1 0 0 1 2.745-17.18l-.01-.011c.036-.109.075-.218.113-.331v.008c.056-.167.1-.333.159-.5a17.664 17.664 0 0 1 1.124 21.722c-.117-.1-.224-.2-.337-.293"/><path data-name="Path 30787" d="M80.84 51.169q0 .859-.056 1.7a1.481 1.481 0 0 0-.161-.01 1.354 1.354 0 1 0 1.354 1.354h41.144c-14.239 0-29.144-9.825-45.649-15.687a25.26 25.26 0 0 1 3.368 12.642m35.067 2.744H81.675v.3a1.054 1.054 0 1 1-1.051-1.053.923.923 0 0 1 .124.008l.316.036.021-.316c.036-.571.056-1.147.056-1.72a25.69 25.69 0 0 0-3.018-12.089c5.161 1.878 10.183 4.13 15.049 6.313 8.152 3.656 15.139 7.156 22.735 8.519"/><path data-name="Path 30788" d="M69.798 36.846a20.258 20.258 0 1 0 5.928 14.324 20.126 20.126 0 0 0-5.932-14.323M55.473 71.125A19.956 19.956 0 1 1 75.426 51.17a19.956 19.956 0 0 1-19.953 19.955"/><path data-name="Path 30789" d="M43.487 63.152a16.952 16.952 0 0 1-.839-.9 5.606 5.606 0 0 0-.226.2 17.254 17.254 0 0 0 26.1 0c-.079-.067-.151-.132-.228-.2-.266.3-.546.607-.837.9a16.948 16.948 0 0 1-23.97 0"/></g></svg>